# Exported from Wings 3D 2.1.4.1
mtllib can.mtl
o Cylinder1
#166 vertices, 150 faces
v 0.24800000 0.73885561 -2.6090241e-18
v 0.22912212 0.73885561 9.4905491e-2
v 0.17536248 0.73885561 0.17536248
v 9.4905491e-2 0.73885561 0.22912212
v -9.4905491e-2 0.73885561 0.22912212
v -0.17536248 0.73885561 0.17536248
v -0.22912212 0.73885561 9.4905491e-2
v -0.24800000 0.73885561 2.7762217e-17
v -0.22912212 0.73885561 -9.4905491e-2
v -0.17536248 0.73885561 -0.17536248
v -9.4905491e-2 0.73885561 -0.22912212
v 9.4905491e-2 0.73885561 -0.22912212
v 0.17536248 0.73885561 -0.17536248
v 0.22912212 0.73885561 -9.4905491e-2
v 0.24800000 -7.3592391e-2 -2.6090241e-18
v 0.22912212 -7.3592391e-2 9.4905491e-2
v 0.17536248 -7.3592391e-2 0.17536248
v 9.4905491e-2 -7.3592391e-2 0.22912212
v -9.4905491e-2 -7.3592391e-2 0.22912212
v -0.17536248 -7.3592391e-2 0.17536248
v -0.22912212 -7.3592391e-2 9.4905491e-2
v -0.24800000 -7.3592391e-2 2.7762217e-17
v -0.22912212 -7.3592391e-2 -9.4905491e-2
v -0.17536248 -7.3592391e-2 -0.17536248
v -9.4905491e-2 -7.3592391e-2 -0.22912212
v 9.4905491e-2 -7.3592391e-2 -0.22912212
v 0.17536248 -7.3592391e-2 -0.17536248
v 0.22912212 -7.3592391e-2 -9.4905491e-2
v 0.19521205 0.78778916 8.0859479e-2
v 0.21129600 0.78778916 -9.3954339e-18
v 0.19521205 0.78778916 -8.0859479e-2
v 0.14940883 0.78778916 -0.14940883
v 8.0859479e-2 0.78778916 -0.19521205
v -7.3873734e-17 0.78778916 -0.21129600
v -8.0859479e-2 0.78778916 -0.19521205
v -0.14940883 0.78778916 -0.14940883
v -0.19521205 0.78778916 -8.0859479e-2
v -0.21129600 0.78778916 1.6480863e-17
v -0.19521205 0.78778916 8.0859479e-2
v -0.14940883 0.78778916 0.14940883
v -8.0859479e-2 0.78778916 0.19521205
v -2.2121140e-17 0.78778916 0.21129600
v 8.0859479e-2 0.78778916 0.19521205
v 0.14940883 0.78778916 0.14940883
v 0.21328000 -0.11204018 -1.4588104e-18
v 0.19704503 -0.11204018 8.1618722e-2
v 0.15081173 -0.11204018 0.15081173
v 8.1618722e-2 -0.11204018 0.19704503
v -2.1452204e-17 -0.11204018 0.21328000
v -8.1618722e-2 -0.11204018 0.19704503
v -0.15081173 -0.11204018 0.15081173
v -0.19704503 -0.11204018 8.1618722e-2
v -0.21328000 -0.11204018 2.4660457e-17
v -0.19704503 -0.11204018 -8.1618722e-2
v -0.15081173 -0.11204018 -0.15081173
v -8.1618722e-2 -0.11204018 -0.19704503
v -7.3690738e-17 -0.11204018 -0.21328000
v 8.1618722e-2 -0.11204018 -0.19704503
v 0.15081173 -0.11204018 -0.15081173
v 0.19704503 -0.11204018 -8.1618722e-2
v 0.17318336 -9.6040178e-2 -1.1711524e-18
v 0.16000056 -9.6040178e-2 6.6274403e-2
v 0.12245913 -9.6040178e-2 0.12245913
v 6.6274403e-2 -9.6040178e-2 0.16000056
v -2.0317496e-17 -9.6040178e-2 0.17318336
v -6.6274403e-2 -9.6040178e-2 0.16000056
v -0.12245913 -9.6040178e-2 0.12245913
v -0.16000056 -9.6040178e-2 6.6274403e-2
v -0.17318336 -9.6040178e-2 1.7572510e-17
v -0.16000056 -9.6040178e-2 -6.6274403e-2
v -0.12245913 -9.6040178e-2 -0.12245913
v -6.6274403e-2 -9.6040178e-2 -0.16000056
v -6.6882488e-17 -9.6040178e-2 -0.17318336
v 6.6274403e-2 -9.6040178e-2 -0.16000056
v 0.12245913 -9.6040178e-2 -0.12245913
v 0.16000056 -9.6040178e-2 -6.6274403e-2
v 0.17725254 0.76973035 7.3420407e-2
v 0.19185677 0.76973035 -1.1552488e-17
v 0.17725254 0.76973035 -7.3420407e-2
v 0.13566322 0.76973035 -0.13566322
v 7.3420407e-2 0.76973035 -0.17725254
v -7.2184377e-17 0.76973035 -0.19185677
v -7.3420407e-2 0.76973035 -0.17725254
v -0.13566322 0.76973035 -0.13566322
v -0.17725254 0.76973035 -7.3420407e-2
v -0.19185677 0.76973035 1.1943190e-17
v -0.17725254 0.76973035 7.3420407e-2
v -0.13566322 0.76973035 0.13566322
v -7.3420407e-2 0.76973035 0.17725254
v -2.5193021e-17 0.76973035 0.19185677
v 7.3420407e-2 0.76973035 0.17725254
v 0.13566322 0.76973035 0.13566322
v 0.18651807 0.76973035 3.1205141e-2
v 0.19437515 0.76973035 1.2150716e-18
v 0.18651807 0.76973035 -3.1205141e-2
v 0.16414302 0.76973035 -5.7659582e-2
v 0.13065639 0.76973035 -7.5335875e-2
v 9.1156207e-2 0.76973035 -8.1542964e-2
v 5.1656028e-2 0.76973035 -7.5335875e-2
v 1.8169394e-2 0.76973035 -5.7659582e-2
v -4.2056602e-3 0.76973035 -3.1205141e-2
v -1.2062734e-2 0.76973035 4.9144347e-18
v -4.2056602e-3 0.76973035 3.1205141e-2
v 1.8169394e-2 0.76973035 5.7659582e-2
v 5.1656028e-2 0.76973035 7.5335875e-2
v 9.1156207e-2 0.76973035 8.1542964e-2
v 0.13065639 0.76973035 7.5335875e-2
v 0.16414302 0.76973035 5.7659582e-2
v 0.18651807 0.75798630 3.1205141e-2
v 0.19437515 0.75798630 1.2150716e-18
v 0.18651807 0.75798630 -3.1205141e-2
v 0.16414302 0.75798630 -5.7659582e-2
v 0.13065639 0.75798630 -7.5335875e-2
v 9.1156207e-2 0.75798630 -8.1542964e-2
v 5.1656028e-2 0.75798630 -7.5335875e-2
v 1.8169394e-2 0.75798630 -5.7659582e-2
v -4.2056602e-3 0.75798630 -3.1205141e-2
v -1.2062734e-2 0.75798630 4.9144347e-18
v -4.2056602e-3 0.75798630 3.1205141e-2
v 1.8169394e-2 0.75798630 5.7659582e-2
v 5.1656028e-2 0.75798630 7.5335875e-2
v 9.1156207e-2 0.75798630 8.1542964e-2
v 0.13065639 0.75798630 7.5335875e-2
v 0.16414302 0.75798630 5.7659582e-2
v -0.19185677 0.78261525 1.1943190e-17
v -1.2062734e-2 0.78261525 4.9144347e-18
v -0.17725254 0.78261525 7.3420407e-2
v -4.2056602e-3 0.78261525 3.1205141e-2
v -4.2056602e-3 0.78261525 -3.1205141e-2
v -0.17725254 0.78261525 -7.3420407e-2
v -5.0809133e-2 0.73885561 0.23789343
v -2.1602233e-17 0.78029768 0.21691519
v 5.0809133e-2 0.73885561 0.23789343
v 5.0809133e-2 0.73885561 -0.23789343
v -7.4731133e-17 0.78029768 -0.21691519
v -5.0809133e-2 0.73885561 -0.23789343
v -5.0809133e-2 -7.3592391e-2 0.23789343
v -2.1452204e-17 -0.11204018 0.21328000
v 5.0809133e-2 -7.3592391e-2 0.23789343
v 5.0809133e-2 -7.3592391e-2 -0.23789343
v -7.3690738e-17 -0.11204018 -0.21328000
v -5.0809133e-2 -7.3592391e-2 -0.23789343
v 3.7192286e-2 0.19835996 -0.23789343
v -3.7192286e-2 0.19835996 -0.23789343
v -3.7192286e-2 0.46690325 -0.23789343
v 3.7192286e-2 0.46690325 -0.23789343
v -3.7192286e-2 0.19835996 0.23789343
v 3.7192286e-2 0.19835996 0.23789343
v 3.7192286e-2 0.46690325 0.23789343
v -3.7192286e-2 0.46690325 0.23789343
v -3.7192286e-2 0.19835996 0.23789343
v 3.7192286e-2 0.19835996 0.23789343
v 3.7192286e-2 0.46690325 0.23789343
v -3.7192286e-2 0.46690325 0.23789343
v 3.7192286e-2 0.19835996 -0.23789343
v -3.7192286e-2 0.19835996 -0.23789343
v -3.7192286e-2 0.46690325 -0.23789343
v 3.7192286e-2 0.46690325 -0.23789343
v -1.9874978e-2 0.21567727 0.25521074
v 1.9874978e-2 0.21567727 0.25521074
v 1.9874978e-2 0.44958595 0.25521074
v -1.9874978e-2 0.44958595 0.25521074
v 1.9874978e-2 0.21567727 -0.25521074
v -1.9874978e-2 0.21567727 -0.25521074
v -1.9874978e-2 0.44958595 -0.25521074
v 1.9874978e-2 0.44958595 -0.25521074
vn 0.94831106 0.31734231 -1.4120539e-16
vn 0.87612518 0.31734231 0.36290293
vn 0.67055718 0.31734231 0.67055718
vn 0.36290293 0.31734231 0.87612518
vn -0.36290293 0.31734231 0.87612518
vn -0.67055718 0.31734231 0.67055718
vn -0.87612518 0.31734231 0.36290293
vn -0.94831106 0.31734231 1.0404608e-16
vn -0.87612518 0.31734231 -0.36290293
vn -0.67055718 0.31734231 -0.67055718
vn -0.36290293 0.31734231 -0.87612518
vn 0.36290293 0.31734231 -0.87612518
vn 0.67055718 0.31734231 -0.67055718
vn 0.87612518 0.31734231 -0.36290293
vn 0.93272266 -0.36059457 -1.2076168e-16
vn 0.86172337 -0.36059457 0.35693751
vn 0.65953452 -0.36059457 0.65953452
vn 0.35693751 -0.36059457 0.86172337
vn -0.35693751 -0.36059457 0.86172337
vn -0.65953452 -0.36059457 0.65953452
vn -0.86172337 -0.36059457 0.35693751
vn -0.93272266 -0.36059457 1.2830928e-16
vn -0.86172337 -0.36059457 -0.35693751
vn -0.65953452 -0.36059457 -0.65953452
vn -0.35693751 -0.36059457 -0.86172337
vn 0.35693751 -0.36059457 -0.86172337
vn 0.65953452 -0.36059457 -0.65953452
vn 0.86172337 -0.36059457 -0.35693751
vn 8.0663828e-2 0.99618120 3.3412051e-2
vn 8.7309898e-2 0.99618120 1.0484423e-17
vn 8.0663828e-2 0.99618120 -3.3412051e-2
vn 6.1737421e-2 0.99618120 -6.1737421e-2
vn 3.3412051e-2 0.99618120 -8.0663828e-2
vn 7.3390959e-17 0.99618120 -8.7309898e-2
vn -3.3412051e-2 0.99618120 -8.0663828e-2
vn -6.1737421e-2 0.99618120 -6.1737421e-2
vn -8.0663828e-2 0.99618120 -3.3412051e-2
vn -8.7309898e-2 0.99618120 4.1937691e-17
vn -8.0663828e-2 0.99618120 3.3412051e-2
vn -6.1737421e-2 0.99618120 6.1737421e-2
vn -3.3412051e-2 0.99618120 8.0663828e-2
vn -8.3875382e-17 0.99618120 8.7309898e-2
vn 3.3412051e-2 0.99618120 8.0663828e-2
vn 6.1737421e-2 0.99618120 6.1737421e-2
vn 0.22359941 -0.97468113 -3.8299247e-17
vn 0.20657892 -0.97468113 8.5567790e-2
vn 0.15810866 -0.97468113 0.15810866
vn 8.5567790e-2 -0.97468113 0.20657892
vn -2.9788303e-17 -0.97468113 0.22359941
vn -8.5567790e-2 -0.97468113 0.20657892
vn -0.15810866 -0.97468113 0.15810866
vn -0.20657892 -0.97468113 8.5567790e-2
vn -0.22359941 -0.97468113 3.4043775e-17
vn -0.20657892 -0.97468113 -8.5567790e-2
vn -0.15810866 -0.97468113 -0.15810866
vn -8.5567790e-2 -0.97468113 -0.20657892
vn -1.1489774e-16 -0.97468113 -0.22359941
vn 8.5567790e-2 -0.97468113 -0.20657892
vn 0.15810866 -0.97468113 -0.15810866
vn 0.20657892 -0.97468113 -8.5567790e-2
vn -0.25086137 -0.96802302 -9.4189766e-18
vn -0.23176569 -0.96802302 -9.6000490e-2
vn -0.17738578 -0.96802302 -0.17738578
vn -9.6000490e-2 -0.96802302 -0.23176569
vn 4.7094883e-18 -0.96802302 -0.25086137
vn 9.6000490e-2 -0.96802302 -0.23176569
vn 0.17738578 -0.96802302 -0.17738578
vn 0.23176569 -0.96802302 -9.6000490e-2
vn 0.25086137 -0.96802302 -5.1804371e-17
vn 0.23176569 -0.96802302 9.6000490e-2
vn 0.17738578 -0.96802302 0.17738578
vn 9.6000490e-2 -0.96802302 0.23176569
vn 4.2385395e-17 -0.96802302 0.25086137
vn -9.6000490e-2 -0.96802302 0.23176569
vn -0.17738578 -0.96802302 0.17738578
vn -0.23176569 -0.96802302 9.6000490e-2
vn -0.62880616 0.73264137 -0.26046004
vn -0.92647538 -0.37635538 1.7156913e-16
vn -0.62880616 0.73264137 0.26046004
vn -0.25735936 0.93141415 0.25735936
vn -0.13928188 0.93141415 0.33625621
vn 5.9911156e-17 0.93141415 0.36396109
vn 0.13928188 0.93141415 0.33625621
vn 0.25735936 0.93141415 0.25735936
vn 0.19429211 0.94815703 -0.25149319
vn -0.38873751 0.92134855 0.0000000e+0
vn 0.19429211 0.94815703 0.25149319
vn 0.25735936 0.93141415 -0.25735936
vn 0.13928188 0.93141415 -0.33625621
vn 0.0000000e+0 0.93141415 -0.36396109
vn -0.13928188 0.93141415 -0.33625621
vn -0.25735936 0.93141415 -0.25735936
vn -0.88958779 0.0000000e+0 -0.45676423
vn -0.69615924 -0.71788740 3.9850756e-17
vn -0.88958779 0.0000000e+0 0.45676423
vn -0.43898506 0.71360112 0.54595381
vn -0.22142553 0.71191958 0.66643923
vn 9.8727368e-17 0.71140566 0.70278161
vn 0.22142553 0.71191958 0.66643923
vn 0.43898506 0.71360112 0.54595381
vn 0.94543790 0.32157863 5.2291193e-2
vn 1.00000000 0.0000000e+0 -7.1554670e-17
vn 0.94543790 0.32157863 -5.2291193e-2
vn 0.43898506 0.71360112 -0.54595381
vn 0.22142553 0.71191958 -0.66643923
vn -9.8727368e-18 0.71140566 -0.70278161
vn -0.22142553 0.71191958 -0.66643923
vn -0.43898506 0.71360112 -0.54595381
vn -0.79143361 0.45661714 -0.40636637
vn -0.88881014 0.45827561 0.0000000e+0
vn -0.79143361 0.45661714 0.40636637
vn -0.55837680 0.45384040 0.69443808
vn -0.28123840 0.45211391 0.84646203
vn 1.2534078e-16 0.45158775 0.89222671
vn 0.28123840 0.45211391 0.84646203
vn 0.55837680 0.45384040 0.69443808
vn 0.79143361 0.45661714 0.40636637
vn 0.88881014 0.45827561 -1.0175763e-16
vn 0.79143361 0.45661714 -0.40636637
vn 0.55837680 0.45384040 -0.69443808
vn 0.28123840 0.45211391 -0.84646203
vn -1.2534078e-17 0.45158775 -0.89222671
vn -0.28123840 0.45211391 -0.84646203
vn -0.55837680 0.45384040 -0.69443808
vn -0.70021451 0.71393252 9.9078040e-18
vn 0.69615924 0.71788740 -5.9776134e-17
vn -0.43570143 0.58579109 0.68338354
vn 0.69842967 0.57877609 0.42096821
vn 0.69842967 0.57877609 -0.42096821
vn -0.43570143 0.58579109 -0.68338354
vn -7.3513354e-2 0.21793363 0.97319100
vn -7.4888592e-17 0.55204322 0.83381550
vn 7.3513354e-2 0.21793363 0.97319100
vn 7.3513354e-2 0.21793363 -0.97319100
vn -9.3610740e-18 0.55204322 -0.83381550
vn -7.3513354e-2 0.21793363 -0.97319100
vn -7.2191139e-2 -0.25440759 0.96439889
vn -3.7387355e-17 -0.62811989 0.77811658
vn 7.2191139e-2 -0.25440759 0.96439889
vn 7.2191139e-2 -0.25440759 -0.96439889
vn -1.6824310e-16 -0.62811989 -0.77811658
vn -7.2191139e-2 -0.25440759 -0.96439889
vn 0.0000000e+0 0.0000000e+0 -1.00000000
vn 0.0000000e+0 0.0000000e+0 -1.00000000
vn 0.0000000e+0 0.0000000e+0 -1.00000000
vn 0.0000000e+0 0.0000000e+0 -1.00000000
vn 0.0000000e+0 0.0000000e+0 1.00000000
vn 0.0000000e+0 0.0000000e+0 1.00000000
vn 0.0000000e+0 0.0000000e+0 1.00000000
vn 0.0000000e+0 0.0000000e+0 1.00000000
vn -0.40824829 -0.40824829 0.81649658
vn 0.40824829 -0.40824829 0.81649658
vn 0.40824829 0.40824829 0.81649658
vn -0.40824829 0.40824829 0.81649658
vn 0.40824829 -0.40824829 -0.81649658
vn -0.40824829 -0.40824829 -0.81649658
vn -0.40824829 0.40824829 -0.81649658
vn 0.40824829 0.40824829 -0.81649658
vn -0.27059805 -0.27059805 0.92387953
vn 0.27059805 -0.27059805 0.92387953
vn 0.27059805 0.27059805 0.92387953
vn -0.27059805 0.27059805 0.92387953
vn 0.27059805 -0.27059805 -0.92387953
vn -0.27059805 -0.27059805 -0.92387953
vn -0.27059805 0.27059805 -0.92387953
vn 0.27059805 0.27059805 -0.92387953
g Cylinder1_default
usemtl default
s 1
f 1//1 15//15 28//28 14//14
f 1//1 30//30 29//29 2//2
f 2//2 16//16 15//15 1//1
f 2//2 29//29 44//44 3//3
f 3//3 17//17 16//16 2//2
f 3//3 44//44 43//43 4//4
f 4//4 18//18 17//17 3//3
f 4//4 43//43 42//42 132//132 133//133
f 5//5 41//41 40//40 6//6
f 6//6 20//20 19//19 5//5
f 6//6 40//40 39//39 7//7
f 7//7 21//21 20//20 6//6
f 7//7 39//39 38//38 8//8
f 8//8 22//22 21//21 7//7
f 8//8 38//38 37//37 9//9
f 9//9 23//23 22//22 8//8
f 9//9 37//37 36//36 10//10
f 10//10 24//24 23//23 9//9
f 10//10 36//36 35//35 11//11
f 11//11 25//25 24//24 10//10
f 11//11 35//35 34//34 135//135 136//136
f 12//12 33//33 32//32 13//13
f 13//13 27//27 26//26 12//12
f 13//13 32//32 31//31 14//14
f 14//14 28//28 27//27 13//13
f 14//14 31//31 30//30 1//1
f 15//15 45//45 60//60 28//28
f 16//16 46//46 45//45 15//15
f 17//17 47//47 46//46 16//16
f 18//18 48//48 47//47 17//17
f 19//19 137//137 131//131 5//5
f 20//20 51//51 50//50 19//19
f 21//21 52//52 51//51 20//20
f 22//22 53//53 52//52 21//21
f 23//23 54//54 53//53 22//22
f 24//24 55//55 54//54 23//23
f 25//25 56//56 55//55 24//24
f 26//26 140//140 134//134 12//12
f 27//27 59//59 58//58 26//26
f 28//28 60//60 59//59 27//27
f 29//29 77//77 92//92 44//44
f 30//30 78//78 77//77 29//29
f 31//31 79//79 78//78 30//30
f 32//32 80//80 79//79 31//31
f 33//33 12//12 134//134 135//135 34//34
f 33//33 81//81 80//80 32//32
f 34//34 82//82 81//81 33//33
f 35//35 83//83 82//82 34//34
f 36//36 84//84 83//83 35//35
f 37//37 85//85 84//84 36//36
f 38//38 86//86 85//85 37//37
f 39//39 87//87 86//86 38//38
f 40//40 88//88 87//87 39//39
f 41//41 5//5 131//131 132//132 42//42
f 41//41 89//89 88//88 40//40
f 42//42 90//90 89//89 41//41
f 43//43 91//91 90//90 42//42
f 44//44 92//92 91//91 43//43
f 45//45 61//61 76//76 60//60
f 46//46 62//62 61//61 45//45
f 47//47 63//63 62//62 46//46
f 48//48 64//64 63//63 47//47
f 49//49 65//65 64//64 48//48
f 49//49 138//138 137//137 19//19 50//50
f 50//50 66//66 65//65 49//49
f 51//51 67//67 66//66 50//50
f 52//52 68//68 67//67 51//51
f 53//53 69//69 68//68 52//52
f 54//54 70//70 69//69 53//53
f 55//55 71//71 70//70 54//54
f 56//56 72//72 71//71 55//55
f 57//57 73//73 72//72 56//56
f 57//57 141//141 140//140 26//26 58//58
f 58//58 74//74 73//73 57//57
f 59//59 75//75 74//74 58//58
f 60//60 76//76 75//75 59//59
f 62//62 63//63 64//64 65//65 66//66 67//67 68//68 69//69 70//70 71//71 72//72 73//73 74//74 75//75 76//76 61//61
f 77//77 93//93 108//108 92//92
f 78//78 94//94 93//93 77//77
f 79//79 95//95 94//94 78//78
f 80//80 96//96 95//95 79//79
f 81//81 97//97 96//96 80//80
f 82//82 98//98 97//97 81//81
f 83//83 99//99 98//98 82//82
f 84//84 100//100 99//99 83//83
f 85//85 101//101 100//100 84//84
f 85//85 130//130 129//129 101//101
f 86//86 125//125 130//130 85//85
f 87//87 127//127 125//125 86//86
f 88//88 104//104 103//103 87//87
f 89//89 105//105 104//104 88//88
f 90//90 106//106 105//105 89//89
f 91//91 107//107 106//106 90//90
f 92//92 108//108 107//107 91//91
f 93//93 109//109 124//124 108//108
f 94//94 110//110 109//109 93//93
f 95//95 111//111 110//110 94//94
f 96//96 112//112 111//111 95//95
f 97//97 113//113 112//112 96//96
f 98//98 114//114 113//113 97//97
f 99//99 115//115 114//114 98//98
f 100//100 116//116 115//115 99//99
f 101//101 117//117 116//116 100//100
f 101//101 129//129 126//126 102//102
f 102//102 118//118 117//117 101//101
f 102//102 126//126 128//128 103//103
f 103//103 119//119 118//118 102//102
f 103//103 128//128 127//127 87//87
f 104//104 120//120 119//119 103//103
f 105//105 121//121 120//120 104//104
f 106//106 122//122 121//121 105//105
f 107//107 123//123 122//122 106//106
f 108//108 124//124 123//123 107//107
f 110//110 111//111 112//112 113//113 114//114 115//115 116//116 117//117 118//118 119//119 120//120 121//121 122//122 123//123 124//124 109//109
f 125//125 127//127 128//128 126//126
f 126//126 129//129 130//130 125//125
f 131//131 150//150 149//149 133//133
f 132//132 131//131 133//133
f 133//133 139//139 18//18 4//4
f 133//133 149//149 148//148 139//139
f 134//134 136//136 135//135
f 134//134 146//146 145//145 136//136
f 136//136 142//142 25//25 11//11
f 136//136 145//145 144//144 142//142
f 137//137 147//147 150//150 131//131
f 139//139 137//137 138//138
f 139//139 138//138 49//49 48//48 18//18
f 139//139 148//148 147//147 137//137
f 140//140 143//143 146//146 134//134
f 142//142 140//140 141//141
f 142//142 141//141 57//57 56//56 25//25
f 142//142 144//144 143//143 140//140
f 143//143 155//155 158//158 146//146
f 144//144 156//156 155//155 143//143
f 145//145 157//157 156//156 144//144
f 146//146 158//158 157//157 145//145
f 147//147 151//151 154//154 150//150
f 148//148 152//152 151//151 147//147
f 149//149 153//153 152//152 148//148
f 150//150 154//154 153//153 149//149
f 152//152 153//153 161//161 160//160
f 153//153 154//154 162//162 161//161
f 154//154 151//151 159//159 162//162
f 156//156 157//157 165//165 164//164
f 157//157 158//158 166//166 165//165
f 158//158 155//155 163//163 166//166
f 160//160 159//159 151//151 152//152
f 160//160 161//161 162//162 159//159
f 164//164 163//163 155//155 156//156
f 164//164 165//165 166//166 163//163
