# Exported from Wings 3D 2.1.4.1
mtllib cardboardbox.mtl
o Cube1
#48 vertices, 46 faces
v -1.00000000 -1.8000000e-2 -1.60000000
v -1.00000000 -1.8000000e-2 1.60000000
v -1.00000000 1.8000000e-2 -1.60000000
v -1.00000000 1.8000000e-2 1.60000000
v 1.00000000 -1.8000000e-2 -1.60000000
v 1.00000000 -1.8000000e-2 1.60000000
v 1.00000000 1.8000000e-2 -1.60000000
v 1.00000000 1.8000000e-2 1.60000000
v -1.02359296 -1.8000000e-2 -1.62359296
v -1.02359296 -1.8000000e-2 1.62359296
v -1.02359296 1.8000000e-2 -1.62359296
v -1.02359296 1.8000000e-2 1.62359296
v 1.02359296 -1.8000000e-2 -1.62359296
v 1.02359296 -1.8000000e-2 1.62359296
v 1.02359296 1.8000000e-2 -1.62359296
v 1.02359296 1.8000000e-2 1.62359296
v -1.00000000 1.46105747 -1.60000000
v -1.00000000 1.46105747 1.60000000
v 1.00000000 1.46105747 -1.60000000
v 1.00000000 1.46105747 1.60000000
v -1.02359296 1.46105747 -1.62359296
v -1.02359296 1.46105747 1.62359296
v 1.02359296 1.46105747 -1.62359296
v 1.02359296 1.46105747 1.62359296
v -1.00000000 1.48376788 -1.60000000
v -1.00000000 1.48376788 1.60000000
v 1.00000000 1.48376788 -1.60000000
v 1.00000000 1.48376788 1.60000000
v -1.02359296 1.48376788 -1.62359296
v -1.02359296 1.48376788 1.62359296
v 1.02359296 1.48376788 -1.62359296
v 1.02359296 1.48376788 1.62359296
v 1.50451935 0.63760463 -1.62359296
v 1.50451935 0.65817759 -1.62359296
v 1.50451935 0.65817759 1.62359296
v 1.50451935 0.63760463 1.62359296
v -1.50451935 0.65817759 -1.62359296
v -1.50451935 0.63760463 -1.62359296
v -1.50451935 0.63760463 1.62359296
v -1.50451935 0.65817759 1.62359296
v -1.02359296 0.86695094 1.83597005
v -1.02359296 0.84424053 1.83597005
v 1.02359296 0.84424053 1.83597005
v 1.02359296 0.86695094 1.83597005
v -1.02359296 0.84424053 -1.83597005
v -1.02359296 0.86695094 -1.83597005
v 1.02359296 0.86695094 -1.83597005
v 1.02359296 0.84424053 -1.83597005
vt 0.0000000e+0 2.7755576e-17
vt 0.0000000e+0 9.6512577e-2
vt 0.0000000e+0 9.6512577e-2
vt 0.0000000e+0 0.19302515
vt 0.0000000e+0 0.19302515
vt 0.0000000e+0 0.52166635
vt 0.0000000e+0 0.85030755
vt 0.0000000e+0 0.85395104
vt 2.7755576e-17 1.00000000
vt 4.1633363e-17 0.52166635
vt 2.3877963e-3 0.19541295
vt 2.3877963e-3 0.52405415
vt 2.3877963e-3 0.84791975
vt 2.3877963e-3 0.51927856
vt 0.20480380 0.19541295
vt 0.20480380 0.52405415
vt 0.20480380 0.84791975
vt 0.20480380 0.51927856
vt 0.20719160 0.19302515
vt 0.20719160 0.52166635
vt 0.20719160 0.66771531
vt 0.20719160 0.67001379
vt 0.20719160 0.67001379
vt 0.20719160 0.81606275
vt 0.20719160 0.81836123
vt 0.20719160 0.85030755
vt 0.20719160 0.85395104
vt 0.20719160 0.51236744
vt 0.20719160 0.51466592
vt 0.20719160 1.00000000
vt 0.20719160 0.19302515
vt 0.20719160 0.19510730
vt 0.20719160 0.36200366
vt 0.20719160 0.36430214
vt 0.20719160 0.44764216
vt 0.20719160 0.44994063
vt 0.20719160 0.52166635
vt 0.20719160 0.85030755
vt 0.20719160 0.85395104
vt 0.20719160 1.00000000
vt 0.22868586 0.44994063
vt 0.22868586 0.45223911
vt 0.22868586 0.44994063
vt 0.22868586 0.45223911
vt 0.25018012 0.44994063
vt 0.25018012 0.45223911
vt 0.25018012 0.51236744
vt 0.25018012 0.51466592
vt 0.25586519 0.27636517
vt 0.25586519 0.27866365
vt 0.25586519 0.27866365
vt 0.25586519 0.28074580
vt 0.25586519 0.36430214
vt 0.25586519 0.36638429
vt 0.27167438 0.51236744
vt 0.27167438 0.51466592
vt 0.29316864 0.44994063
vt 0.29316864 0.45223911
vt 0.30453879 0.44764216
vt 0.30453879 0.44994063
vt 0.32864120 0.0000000e+0
vt 0.32864120 9.6512577e-2
vt 0.32864120 9.6512577e-2
vt 0.32864120 0.19302515
vt 0.32864120 0.0000000e+0
vt 0.32864120 3.6434881e-3
vt 0.32864120 0.14969245
vt 0.32864120 0.14969245
vt 0.32864120 0.15333594
vt 0.32864120 0.29938490
vt 0.32864120 0.29938490
vt 0.32864120 0.39788907
vt 0.32864120 0.39969926
vt 0.32864120 0.49639323
vt 0.32864120 0.30119510
vt 0.41438319 0.85030755
vt 0.41438319 0.85030755
vt 0.41438319 0.85248889
vt 0.41438319 0.85395104
vt 0.41438319 0.91850847
vt 0.41438319 0.91850847
vt 0.41438319 0.98453203
vt 0.41438319 1.00000000
vt 0.53105720 0.52166635
vt 0.53105720 0.66771531
vt 0.53105720 0.67001379
vt 0.53105720 0.67001379
vt 0.53105720 0.81606275
vt 0.53105720 0.81836123
vt 0.62157479 0.85030755
vt 0.62157479 0.85248889
vt 0.62157479 0.91850847
vt 0.62157479 0.91850847
vt 0.62157479 0.98453203
vt 0.62157479 0.85030755
vt 0.62157479 0.85248889
vt 0.62157479 0.91850847
vt 0.62157479 0.91850847
vt 0.62157479 0.98453203
vt 0.65728239 0.0000000e+0
vt 0.65728239 3.6434881e-3
vt 0.65728239 0.14969245
vt 0.65728239 0.14969245
vt 0.65728239 0.15333594
vt 0.65728239 0.29938490
vt 0.65728239 0.29938490
vt 0.65728239 0.30119510
vt 0.65728239 0.39788907
vt 0.65728239 0.39969926
vt 0.65728239 0.49639323
vt 0.65728239 0.0000000e+0
vt 0.65728239 0.32386560
vt 0.65728239 0.32386560
vt 0.65728239 0.46991457
vt 0.65728239 0.47221304
vt 0.65728239 0.61826201
vt 0.65728239 0.62056048
vt 0.82876638 0.85030755
vt 0.82876638 0.85248889
vt 0.82876638 0.91850847
vt 0.82876638 0.91850847
vt 0.82876638 0.98453203
vt 0.85969840 0.0000000e+0
vt 0.85969840 0.32386560
vt 0.85969840 0.32386560
vt 0.85969840 0.46991457
vt 0.85969840 0.47221304
vt 0.85969840 0.47221304
vt 0.85969840 0.61826201
vt 0.85969840 0.62056048
vn 0.0000000e+0 -1.00000000 0.0000000e+0
vn 0.0000000e+0 -1.00000000 0.0000000e+0
vn 0.0000000e+0 -1.00000000 0.0000000e+0
vn 0.0000000e+0 -1.00000000 0.0000000e+0
vn 0.0000000e+0 -1.00000000 0.0000000e+0
vn 0.0000000e+0 -1.00000000 0.0000000e+0
vn 0.0000000e+0 1.00000000 0.0000000e+0
vn 1.00000000 0.0000000e+0 0.0000000e+0
vn 0.0000000e+0 0.0000000e+0 1.00000000
vn 0.0000000e+0 1.00000000 0.0000000e+0
vn 1.00000000 0.0000000e+0 0.0000000e+0
vn 0.0000000e+0 0.0000000e+0 -1.00000000
vn 0.0000000e+0 -1.00000000 0.0000000e+0
vn 0.0000000e+0 -1.00000000 0.0000000e+0
vn 0.0000000e+0 -1.00000000 0.0000000e+0
vn 0.0000000e+0 -1.00000000 0.0000000e+0
vn 0.0000000e+0 -1.00000000 0.0000000e+0
vn 0.0000000e+0 -1.00000000 0.0000000e+0
vn 0.0000000e+0 1.00000000 0.0000000e+0
vn 0.0000000e+0 0.0000000e+0 1.00000000
vn -1.00000000 0.0000000e+0 0.0000000e+0
vn 0.0000000e+0 1.00000000 0.0000000e+0
vn -1.00000000 0.0000000e+0 0.0000000e+0
vn 0.0000000e+0 0.0000000e+0 -1.00000000
vn 0.0000000e+0 0.0000000e+0 -1.00000000
vn -1.00000000 0.0000000e+0 0.0000000e+0
vn 0.0000000e+0 -1.00000000 0.0000000e+0
vn 0.0000000e+0 -1.00000000 0.0000000e+0
vn 0.0000000e+0 0.0000000e+0 1.00000000
vn -1.00000000 0.0000000e+0 0.0000000e+0
vn 0.0000000e+0 -1.00000000 0.0000000e+0
vn 0.0000000e+0 -1.00000000 0.0000000e+0
vn 0.0000000e+0 0.0000000e+0 -1.00000000
vn -1.00000000 0.0000000e+0 0.0000000e+0
vn -1.00000000 0.0000000e+0 0.0000000e+0
vn 0.0000000e+0 0.0000000e+0 -1.00000000
vn 0.0000000e+0 0.0000000e+0 1.00000000
vn -1.00000000 0.0000000e+0 0.0000000e+0
vn -1.00000000 0.0000000e+0 0.0000000e+0
vn 0.0000000e+0 0.0000000e+0 1.00000000
vn 0.0000000e+0 0.0000000e+0 -1.00000000
vn 1.00000000 0.0000000e+0 0.0000000e+0
vn 0.0000000e+0 -1.00000000 0.0000000e+0
vn 0.0000000e+0 -1.00000000 0.0000000e+0
vn 0.0000000e+0 0.0000000e+0 1.00000000
vn 1.00000000 0.0000000e+0 0.0000000e+0
vn 0.0000000e+0 -1.00000000 0.0000000e+0
vn 0.0000000e+0 -1.00000000 0.0000000e+0
vn 0.0000000e+0 0.0000000e+0 -1.00000000
vn 1.00000000 0.0000000e+0 0.0000000e+0
vn 1.00000000 0.0000000e+0 0.0000000e+0
vn 0.0000000e+0 0.0000000e+0 -1.00000000
vn 0.0000000e+0 0.0000000e+0 1.00000000
vn 1.00000000 0.0000000e+0 0.0000000e+0
vn 1.00000000 0.0000000e+0 0.0000000e+0
vn 0.0000000e+0 0.0000000e+0 1.00000000
vn 1.00000000 0.0000000e+0 0.0000000e+0
vn 0.0000000e+0 0.0000000e+0 1.00000000
vn 1.00000000 0.0000000e+0 0.0000000e+0
vn 0.0000000e+0 0.0000000e+0 1.00000000
vn 1.00000000 0.0000000e+0 0.0000000e+0
vn 0.0000000e+0 0.0000000e+0 -1.00000000
vn 0.0000000e+0 0.0000000e+0 -1.00000000
vn 1.00000000 0.0000000e+0 0.0000000e+0
vn 0.0000000e+0 0.0000000e+0 1.00000000
vn -1.00000000 0.0000000e+0 0.0000000e+0
vn -1.00000000 0.0000000e+0 0.0000000e+0
vn 0.0000000e+0 0.0000000e+0 1.00000000
vn -1.00000000 0.0000000e+0 0.0000000e+0
vn 0.0000000e+0 0.0000000e+0 -1.00000000
vn 0.0000000e+0 0.0000000e+0 -1.00000000
vn -1.00000000 0.0000000e+0 0.0000000e+0
vn -1.00000000 0.0000000e+0 0.0000000e+0
vn 0.0000000e+0 0.0000000e+0 -1.00000000
vn 0.0000000e+0 0.0000000e+0 -1.00000000
vn 0.86351457 -0.50432389 0.0000000e+0
vn -1.00000000 0.0000000e+0 0.0000000e+0
vn 0.0000000e+0 -0.32555443 0.94552330
vn -1.00000000 0.0000000e+0 0.0000000e+0
vn 0.0000000e+0 0.0000000e+0 1.00000000
vn 0.86351457 -0.50432389 0.0000000e+0
vn 0.0000000e+0 0.0000000e+0 1.00000000
vn -1.00000000 0.0000000e+0 0.0000000e+0
vn 0.0000000e+0 -0.32555443 -0.94552330
vn 1.00000000 0.0000000e+0 0.0000000e+0
vn 0.0000000e+0 0.0000000e+0 -1.00000000
vn 0.0000000e+0 0.0000000e+0 -1.00000000
vn -0.86351457 -0.50432389 0.0000000e+0
vn 1.00000000 0.0000000e+0 0.0000000e+0
vn 0.0000000e+0 -0.32555443 0.94552330
vn 1.00000000 0.0000000e+0 0.0000000e+0
vn 0.0000000e+0 0.0000000e+0 1.00000000
vn 0.0000000e+0 0.0000000e+0 1.00000000
vn -0.86351457 -0.50432389 0.0000000e+0
vn 0.0000000e+0 -0.32555443 -0.94552330
vn 1.00000000 0.0000000e+0 0.0000000e+0
vn 0.0000000e+0 1.00000000 0.0000000e+0
vn 0.0000000e+0 1.00000000 0.0000000e+0
vn 1.00000000 0.0000000e+0 0.0000000e+0
vn 0.0000000e+0 0.0000000e+0 1.00000000
vn 0.0000000e+0 1.00000000 0.0000000e+0
vn 0.0000000e+0 1.00000000 0.0000000e+0
vn 0.0000000e+0 0.0000000e+0 -1.00000000
vn 1.00000000 0.0000000e+0 0.0000000e+0
vn 0.0000000e+0 1.00000000 0.0000000e+0
vn 0.0000000e+0 1.00000000 0.0000000e+0
vn -1.00000000 0.0000000e+0 0.0000000e+0
vn 0.0000000e+0 0.0000000e+0 1.00000000
vn 0.0000000e+0 1.00000000 0.0000000e+0
vn 0.0000000e+0 1.00000000 0.0000000e+0
vn 0.0000000e+0 0.0000000e+0 -1.00000000
vn -1.00000000 0.0000000e+0 0.0000000e+0
vn 0.0000000e+0 1.00000000 0.0000000e+0
vn 0.0000000e+0 1.00000000 0.0000000e+0
vn 0.0000000e+0 0.0000000e+0 -1.00000000
vn -0.86408301 0.50334933 0.0000000e+0
vn -1.00000000 0.0000000e+0 0.0000000e+0
vn 0.0000000e+0 0.32555443 -0.94552330
vn 0.0000000e+0 1.00000000 0.0000000e+0
vn 0.0000000e+0 1.00000000 0.0000000e+0
vn 0.0000000e+0 0.0000000e+0 1.00000000
vn -0.86408301 0.50334933 0.0000000e+0
vn -1.00000000 0.0000000e+0 0.0000000e+0
vn 0.0000000e+0 0.32555443 0.94552330
vn 0.0000000e+0 1.00000000 0.0000000e+0
vn 0.0000000e+0 1.00000000 0.0000000e+0
vn 0.0000000e+0 0.0000000e+0 -1.00000000
vn 0.86408301 0.50334933 0.0000000e+0
vn 0.0000000e+0 0.32555443 -0.94552330
vn 1.00000000 0.0000000e+0 0.0000000e+0
vn 0.0000000e+0 1.00000000 0.0000000e+0
vn 0.0000000e+0 1.00000000 0.0000000e+0
vn 0.86408301 0.50334933 0.0000000e+0
vn 0.0000000e+0 0.0000000e+0 1.00000000
vn 1.00000000 0.0000000e+0 0.0000000e+0
vn 0.0000000e+0 0.32555443 0.94552330
vn 1.00000000 0.0000000e+0 0.0000000e+0
vn 0.0000000e+0 0.0000000e+0 -1.00000000
vn -0.86351457 -0.50432389 0.0000000e+0
vn 1.00000000 0.0000000e+0 0.0000000e+0
vn 0.0000000e+0 0.0000000e+0 -1.00000000
vn 0.86408301 0.50334933 0.0000000e+0
vn 1.00000000 0.0000000e+0 0.0000000e+0
vn 0.86408301 0.50334933 0.0000000e+0
vn 0.0000000e+0 0.0000000e+0 1.00000000
vn 1.00000000 0.0000000e+0 0.0000000e+0
vn 0.0000000e+0 0.0000000e+0 1.00000000
vn -0.86351457 -0.50432389 0.0000000e+0
vn -1.00000000 0.0000000e+0 0.0000000e+0
vn 0.0000000e+0 0.0000000e+0 -1.00000000
vn -0.86408301 0.50334933 0.0000000e+0
vn -1.00000000 0.0000000e+0 0.0000000e+0
vn 0.0000000e+0 0.0000000e+0 -1.00000000
vn 0.86351457 -0.50432389 0.0000000e+0
vn -1.00000000 0.0000000e+0 0.0000000e+0
vn 0.86351457 -0.50432389 0.0000000e+0
vn 0.0000000e+0 0.0000000e+0 1.00000000
vn -1.00000000 0.0000000e+0 0.0000000e+0
vn 0.0000000e+0 0.0000000e+0 1.00000000
vn -0.86408301 0.50334933 0.0000000e+0
vn 0.0000000e+0 0.0000000e+0 1.00000000
vn -1.00000000 0.0000000e+0 0.0000000e+0
vn 0.0000000e+0 0.32555443 0.94552330
vn 0.0000000e+0 0.0000000e+0 1.00000000
vn -1.00000000 0.0000000e+0 0.0000000e+0
vn 0.0000000e+0 -0.32555443 -0.94552330
vn 0.0000000e+0 0.0000000e+0 1.00000000
vn 0.0000000e+0 -0.32555443 -0.94552330
vn 1.00000000 0.0000000e+0 0.0000000e+0
vn 0.0000000e+0 0.0000000e+0 1.00000000
vn 1.00000000 0.0000000e+0 0.0000000e+0
vn 0.0000000e+0 0.32555443 0.94552330
vn 0.0000000e+0 0.0000000e+0 -1.00000000
vn -1.00000000 0.0000000e+0 0.0000000e+0
vn 0.0000000e+0 -0.32555443 0.94552330
vn 0.0000000e+0 0.0000000e+0 -1.00000000
vn -1.00000000 0.0000000e+0 0.0000000e+0
vn 0.0000000e+0 0.32555443 -0.94552330
vn 0.0000000e+0 0.0000000e+0 -1.00000000
vn 0.0000000e+0 0.32555443 -0.94552330
vn 1.00000000 0.0000000e+0 0.0000000e+0
vn 0.0000000e+0 0.0000000e+0 -1.00000000
vn 1.00000000 0.0000000e+0 0.0000000e+0
vn 0.0000000e+0 -0.32555443 0.94552330
g Cube1_Cube1_auv
usemtl Cube1_auv
s 1
f 2/15/6 6/11/18 14/5/48 10/19/32
f 4/111/10 8/123/22 7/124/19 3/112/7
f 9/68/26 10/103/30 12/104/38 11/69/34
f 9/37/28 13/10/44 5/14/15 1/18/3
f 12/39/40 16/79/56 24/83/92 22/40/80
f 15/101/50 16/66/54 14/65/46 13/100/42
f 17/85/59 25/86/99 26/22/104 18/21/64
f 20/88/72 28/89/112 27/25/107 19/24/67
f 21/30/74 23/9/86 15/8/52 11/27/36
f 22/4/81 39/2/156 38/63/154 21/64/76
f 22/28/83 42/41/165 41/42/162 30/29/123
f 24/35/93 36/53/147 35/54/145 32/36/134
f 25/13/98 27/17/106 31/26/126 29/7/114
f 29/72/116 37/75/151 40/107/160 30/108/122
f 30/6/119 32/20/131 28/16/109 26/12/101
f 31/50/127 34/32/141 33/31/138 23/49/87
f 46/91/176 47/78/179 48/76/182 45/90/173
s 2
f 2/15/5 10/19/31 9/37/27 1/18/2
f 3/84/8 17/85/57 18/21/61 4/20/11
f 5/14/14 13/10/43 14/5/47 6/11/17
f 8/87/23 20/88/69 19/24/66 7/23/21
f 10/38/29 14/77/45 16/79/53 12/39/37
f 11/69/35 12/104/39 22/105/79 21/70/73
f 11/27/33 15/8/49 13/7/41 9/26/25
f 18/126/63 26/127/103 28/115/111 20/114/71
f 19/129/68 27/130/108 25/117/100 17/116/60
f 23/3/88 33/1/139 36/61/148 24/62/94
f 23/55/89 48/57/183 47/58/181 31/56/130
f 24/99/95 43/97/168 42/120/166 22/122/84
f 29/7/113 30/6/120 26/12/102 25/13/97
f 29/48/117 46/44/177 45/43/174 21/47/77
f 30/60/121 40/54/159 39/53/157 22/59/82
f 30/98/124 41/96/163 44/119/172 32/121/136
f 32/74/133 35/73/144 34/109/142 31/110/128
s 3
f 1/18/1 5/14/13 6/11/16 2/15/4
f 4/125/12 18/126/62 20/114/70 8/113/24
f 7/128/20 19/129/65 17/116/58 3/115/9
f 21/33/75 38/51/153 37/52/150 29/34/115
f 21/82/78 45/81/175 48/93/184 23/94/90
f 23/102/85 24/67/91 16/66/55 15/101/51
f 27/17/105 28/16/110 32/20/132 31/26/125
f 31/80/129 47/78/180 46/91/178 29/92/118
f 32/56/135 44/46/171 43/45/169 24/55/96
f 34/109/140 35/73/143 36/72/146 33/108/137
s 4
f 38/71/152 39/106/155 40/107/158 37/75/149
f 42/95/164 43/118/167 44/119/170 41/96/161
