# Exported from Wings 3D 2.1.4.1
mtllib CPUCore.mtl
o Cube1
#56 vertices, 50 faces
v -0.74000000 0.12284000 -0.74000000
v -0.74000000 0.12284000 0.74000000
v 0.74000000 0.12284000 -0.74000000
v 0.74000000 0.12284000 0.74000000
v -1.03354667 -2.8375884e-2 -1.03354667
v -1.03354667 -2.8375884e-2 1.03354667
v 1.03354667 -2.8375884e-2 -1.03354667
v 1.03354667 -2.8375884e-2 1.03354667
v -0.67488000 0.12284000 -0.67488000
v -0.67488000 0.12284000 0.67488000
v 0.67488000 0.12284000 0.67488000
v 0.67488000 0.12284000 -0.67488000
v -0.67488000 9.3257778e-2 -0.67488000
v -0.67488000 9.3257778e-2 0.67488000
v 0.67488000 9.3257778e-2 0.67488000
v 0.67488000 9.3257778e-2 -0.67488000
v -0.74000000 -0.12284000 -0.65794288
v -0.65794288 -0.12284000 -0.74000000
v -0.74000000 -0.12284000 0.65794288
v -0.65794288 -0.12284000 0.74000000
v 0.65794288 -0.12284000 -0.74000000
v 0.74000000 -0.12284000 -0.65794288
v 0.74000000 -0.12284000 0.65794288
v 0.65794288 -0.12284000 0.74000000
v -1.03354667 -0.11043300 -0.95148955
v -1.03354667 -2.8375884e-2 -1.03354667
v -0.95148955 -0.11043300 -1.03354667
v -0.95148955 -0.11043300 1.03354667
v -1.03354667 -2.8375884e-2 1.03354667
v -1.03354667 -0.11043300 0.95148955
v 0.95148955 -0.11043300 -1.03354667
v 1.03354667 -2.8375884e-2 -1.03354667
v 1.03354667 -0.11043300 -0.95148955
v 1.03354667 -0.11043300 0.95148955
v 1.03354667 -2.8375884e-2 1.03354667
v 0.95148955 -0.11043300 1.03354667
v -1.03354667 -0.13492463 -0.95148955
v -0.95148955 -0.13492463 -1.03354667
v -1.03354667 -5.2867506e-2 -1.03354667
v -0.65794288 -0.14733162 -0.74000000
v -0.74000000 -0.14733162 -0.65794288
v -0.95148955 -0.13492463 1.03354667
v -1.03354667 -0.13492463 0.95148955
v -1.03354667 -5.2867506e-2 1.03354667
v -0.74000000 -0.14733162 0.65794288
v -0.65794288 -0.14733162 0.74000000
v 0.95148955 -0.13492463 -1.03354667
v 1.03354667 -0.13492463 -0.95148955
v 1.03354667 -5.2867506e-2 -1.03354667
v 0.74000000 -0.14733162 -0.65794288
v 0.65794288 -0.14733162 -0.74000000
v 1.03354667 -0.13492463 0.95148955
v 0.95148955 -0.13492463 1.03354667
v 0.65794288 -0.14733162 0.74000000
v 0.74000000 -0.14733162 0.65794288
v 1.03354667 -5.2867506e-2 1.03354667
vn -0.11947196 0.98562310 -0.11947196
vn -0.11947196 0.98562310 0.11947196
vn 0.11947196 0.98562310 -0.11947196
vn 0.11947196 0.98562310 0.11947196
vn -0.53550428 0.65304697 -0.53550428
vn -0.53550428 0.65304697 0.53550428
vn 0.53550428 0.65304697 -0.53550428
vn 0.53550428 0.65304697 0.53550428
vn 0.40824829 0.81649658 0.40824829
vn 0.40824829 0.81649658 -0.40824829
vn -0.40824829 0.81649658 -0.40824829
vn -0.40824829 0.81649658 0.40824829
vn 0.57735027 0.57735027 0.57735027
vn 0.57735027 0.57735027 -0.57735027
vn -0.57735027 0.57735027 -0.57735027
vn -0.57735027 0.57735027 0.57735027
vn -1.7242128e-2 -0.81625378 0.57743612
vn 0.57743612 -0.81625378 -1.7242128e-2
vn -1.7242128e-2 -0.81625378 -0.57743612
vn 0.57743612 -0.81625378 1.7242128e-2
vn -0.57743612 -0.81625378 -1.7242128e-2
vn 1.7242128e-2 -0.81625378 0.57743612
vn 1.7242128e-2 -0.81625378 -0.57743612
vn -0.57743612 -0.81625378 1.7242128e-2
vn -0.91355362 -0.33198528 0.23495863
vn -0.70710678 0.0000000e+0 -0.70710678
vn 0.23495863 -0.33198528 -0.91355362
vn 0.23495863 -0.33198528 0.91355362
vn -0.70710678 0.0000000e+0 0.70710678
vn -0.91355362 -0.33198528 -0.23495863
vn -0.23495863 -0.33198528 -0.91355362
vn 0.70710678 0.0000000e+0 -0.70710678
vn 0.91355362 -0.33198528 0.23495863
vn 0.91355362 -0.33198528 -0.23495863
vn 0.70710678 0.0000000e+0 0.70710678
vn -0.23495863 -0.33198528 0.91355362
vn -0.82478359 -0.56411151 3.8861682e-2
vn 3.8861682e-2 -0.56411151 -0.82478359
vn -0.68455032 -0.25056281 -0.68455032
vn 0.81243157 -0.58292640 -1.2318936e-2
vn -1.2318936e-2 -0.58292640 0.81243157
vn 3.8861682e-2 -0.56411151 0.82478359
vn -0.82478359 -0.56411151 -3.8861682e-2
vn -0.68455032 -0.25056281 0.68455032
vn -1.2318936e-2 -0.58292640 -0.81243157
vn 0.81243157 -0.58292640 1.2318936e-2
vn -3.8861682e-2 -0.56411151 -0.82478359
vn 0.82478359 -0.56411151 3.8861682e-2
vn 0.68455032 -0.25056281 -0.68455032
vn 1.2318936e-2 -0.58292640 0.81243157
vn -0.81243157 -0.58292640 -1.2318936e-2
vn 0.82478359 -0.56411151 -3.8861682e-2
vn -3.8861682e-2 -0.56411151 0.82478359
vn -0.81243157 -0.58292640 1.2318936e-2
vn 1.2318936e-2 -0.58292640 -0.81243157
vn 0.68455032 -0.25056281 0.68455032
g Cube1_default
usemtl default
s 1
f 1//1 5//5 6//6 2//2
f 1//1 9//9 12//12 3//3
f 2//2 6//6 8//8 4//4
f 2//2 10//10 9//9 1//1
f 3//3 7//7 5//5 1//1
f 3//3 12//12 11//11 4//4
f 4//4 8//8 7//7 3//3
f 4//4 11//11 10//10 2//2
f 5//5 26//26 25//25 30//30 29//29 6//6
f 6//6 29//29 28//28 36//36 35//35 8//8
f 7//7 32//32 31//31 27//27 26//26 5//5
f 8//8 35//35 34//34 33//33 32//32 7//7
f 9//9 13//13 16//16 12//12
f 10//10 14//14 13//13 9//9
f 11//11 15//15 14//14 10//10
f 12//12 16//16 15//15 11//11
f 14//14 15//15 16//16 13//13
f 17//17 18//18 21//21 22//22 23//23 24//24 20//20 19//19
f 17//17 41//41 40//40 18//18
f 18//18 27//27 31//31 21//21
f 18//18 40//40 38//38 27//27
f 19//19 30//30 25//25 17//17
f 19//19 45//45 43//43 30//30
f 20//20 46//46 45//45 19//19
f 21//21 51//51 50//50 22//22
f 22//22 33//33 34//34 23//23
f 22//22 50//50 48//48 33//33
f 23//23 55//55 54//54 24//24
f 24//24 36//36 28//28 20//20
f 24//24 54//54 53//53 36//36
f 25//25 37//37 41//41 17//17
f 26//26 39//39 37//37 25//25
f 27//27 38//38 39//39 26//26
f 28//28 42//42 46//46 20//20
f 29//29 44//44 42//42 28//28
f 30//30 43//43 44//44 29//29
f 31//31 47//47 51//51 21//21
f 32//32 49//49 47//47 31//31
f 33//33 48//48 49//49 32//32
f 34//34 52//52 55//55 23//23
f 35//35 56//56 52//52 34//34
f 36//36 53//53 56//56 35//35
f 37//37 39//39 38//38
f 38//38 40//40 41//41 37//37
f 42//42 44//44 43//43
f 43//43 45//45 46//46 42//42
f 47//47 49//49 48//48
f 48//48 50//50 51//51 47//47
f 52//52 56//56 53//53
f 53//53 54//54 55//55 52//52
