# Exported from Wings 3D 2.1.4.1
mtllib fencepost.mtl
o Cylinder1
#104 vertices, 79 faces
v 0.12400000 2.06190656 -3.0392355e-18
v 0.11456106 2.06190656 4.7452746e-2
v 8.7681241e-2 2.06190656 8.7681241e-2
v 4.7452746e-2 2.06190656 0.11456106
v -4.7452746e-2 2.06190656 0.11456106
v -8.7681241e-2 2.06190656 8.7681241e-2
v -0.11456106 2.06190656 4.7452746e-2
v -0.12400000 2.06190656 1.2146385e-17
v -0.11456106 2.06190656 -4.7452746e-2
v -8.7681241e-2 2.06190656 -8.7681241e-2
v -4.7452746e-2 2.06190656 -0.11456106
v 4.7452746e-2 2.06190656 -0.11456106
v 8.7681241e-2 2.06190656 -8.7681241e-2
v 0.11456106 2.06190656 -4.7452746e-2
v 0.12400000 -2.0460160e-2 -3.0392355e-18
v 0.11456106 -2.0460160e-2 4.7452746e-2
v 8.7681241e-2 -2.0460160e-2 8.7681241e-2
v 4.7452746e-2 -2.0460160e-2 0.11456106
v -4.7452746e-2 -2.0460160e-2 0.11456106
v -8.7681241e-2 -2.0460160e-2 8.7681241e-2
v -0.11456106 -2.0460160e-2 4.7452746e-2
v -0.12400000 -2.0460160e-2 1.2146385e-17
v -0.11456106 -2.0460160e-2 -4.7452746e-2
v -8.7681241e-2 -2.0460160e-2 -8.7681241e-2
v -4.7452746e-2 -2.0460160e-2 -0.11456106
v 4.7452746e-2 -2.0460160e-2 -0.11456106
v 8.7681241e-2 -2.0460160e-2 -8.7681241e-2
v 0.11456106 -2.0460160e-2 -4.7452746e-2
v 0.10562530 2.12416576 4.3751431e-2
v 0.11432800 2.12416576 -9.5299734e-17
v 0.10562530 2.12416576 -4.3751431e-2
v 8.0842104e-2 2.12416576 -8.0842104e-2
v 4.3751431e-2 2.12416576 -0.10562530
v -6.1218626e-17 2.12416576 -0.11432800
v -4.3751431e-2 2.12416576 -0.10562530
v -8.0842104e-2 2.12416576 -8.0842104e-2
v -0.10562530 2.12416576 -4.3751431e-2
v -0.11432800 2.12416576 -8.1298592e-17
v -0.10562530 2.12416576 4.3751431e-2
v -8.0842104e-2 2.12416576 8.0842104e-2
v -4.3751431e-2 2.12416576 0.10562530
v -3.3216342e-17 2.12416576 0.11432800
v 4.3751431e-2 2.12416576 0.10562530
v 8.0842104e-2 2.12416576 8.0842104e-2
v 8.5133991e-2 2.17987136 3.5263654e-2
v 9.2148368e-2 2.17987136 -7.6637025e-17
v 8.5133991e-2 2.17987136 -3.5263654e-2
v 6.5158736e-2 2.17987136 -6.5158736e-2
v 3.5263654e-2 2.17987136 -8.5133991e-2
v -6.0784449e-17 2.17987136 -9.2148368e-2
v -3.5263654e-2 2.17987136 -8.5133991e-2
v -6.5158736e-2 2.17987136 -6.5158736e-2
v -8.5133991e-2 2.17987136 -3.5263654e-2
v -9.2148368e-2 2.17987136 -6.5352104e-17
v -8.5133991e-2 2.17987136 3.5263654e-2
v -6.5158736e-2 2.17987136 6.5158736e-2
v -3.5263654e-2 2.17987136 8.5133991e-2
v -3.8214608e-17 2.17987136 9.2148368e-2
v 3.5263654e-2 2.17987136 8.5133991e-2
v 6.5158736e-2 2.17987136 6.5158736e-2
v 4.2737264e-2 2.24540736 1.7702354e-2
v 4.6258481e-2 2.24540736 -2.1606244e-16
v 4.2737264e-2 2.24540736 -1.7702354e-2
v 3.2709685e-2 2.24540736 -3.2709685e-2
v 1.7702354e-2 2.24540736 -4.2737264e-2
v -5.9022239e-17 2.24540736 -4.6258481e-2
v -1.7702354e-2 2.24540736 -4.2737264e-2
v -3.2709685e-2 2.24540736 -3.2709685e-2
v -4.2737264e-2 2.24540736 -1.7702354e-2
v -4.6258481e-2 2.24540736 -2.1039741e-16
v -4.2737264e-2 2.24540736 1.7702354e-2
v -3.2709685e-2 2.24540736 3.2709685e-2
v -1.7702354e-2 2.24540736 4.2737264e-2
v -4.7692179e-17 2.24540736 4.6258481e-2
v 1.7702354e-2 2.24540736 4.2737264e-2
v 3.2709685e-2 2.24540736 3.2709685e-2
v -4.7452746e-2 2.06190656 0.11456106
v -3.2914825e-17 2.10971549 0.11657286
v 4.7452746e-2 2.06190656 0.11456106
v 4.7452746e-2 2.06190656 -0.11456106
v -6.1466940e-17 2.10971549 -0.11657286
v -4.7452746e-2 2.06190656 -0.11456106
v -4.7452746e-2 -2.0460160e-2 0.11456106
v 4.7452746e-2 -2.0460160e-2 0.11456106
v 4.7452746e-2 -2.0460160e-2 -0.11456106
v -4.7452746e-2 -2.0460160e-2 -0.11456106
v -3.5589559e-2 1.93637270 0.11456106
v -3.5589559e-2 1.85686670 0.11456106
v -3.5589559e-2 1.24225046 0.11456106
v -3.5589559e-2 1.16274446 0.11456106
v 3.5589559e-2 1.24225046 0.11456106
v 3.5589559e-2 1.16274446 0.11456106
v 3.5589559e-2 1.85686670 0.11456106
v 3.5589559e-2 1.93637270 0.11456106
v 4.7452746e-2 1.20249746 0.11456106
v -3.4694470e-17 1.25550146 0.11456106
v -4.7452746e-2 1.20249746 0.11456106
v -3.4694470e-17 1.14949346 0.11456106
v -3.4694470e-17 1.84361570 0.11456106
v -3.4694470e-17 1.94962370 0.11456106
v -4.7452746e-2 1.89661970 0.11456106
v 4.7452746e-2 1.89661970 0.11456106
v -3.4694470e-17 2.06190656 0.11456106
v -3.4694470e-17 -2.0460160e-2 0.11456106
vt 0.0000000e+0 1.1102230e-16
vt 0.0000000e+0 4.1569770e-4
vt 6.5182235e-16 1.1102230e-16
vt 6.1617378e-15 0.91847064
vt 3.0161925e-3 0.94599719
vt 6.6341683e-3 1.00000000
vt 6.6341683e-3 5.5511151e-17
vt 6.6341683e-3 1.00000000
vt 6.6341683e-3 2.7755576e-16
vt 9.9328634e-3 0.97073568
vt 1.7741550e-2 1.0803631e-4
vt 1.7741550e-2 0.91816298
vt 1.9373902e-2 0.94571353
vt 2.3117177e-2 0.97050704
vt 2.4243527e-2 1.00000000
vt 3.0862052e-2 0.99988523
vt 3.8669135e-2 0.0000000e+0
vt 3.8669135e-2 0.91805494
vt 3.8669135e-2 0.94561392
vt 3.8669135e-2 0.97042676
vt 3.8669135e-2 0.99984492
vt 4.6476218e-2 0.99988523
vt 5.3094743e-2 1.00000000
vt 5.4221093e-2 0.97050704
vt 5.7964368e-2 0.94571353
vt 5.9596720e-2 1.0803631e-4
vt 5.9596720e-2 0.91816298
vt 6.7405407e-2 0.97073568
vt 7.4322077e-2 0.94599719
vt 7.7338270e-2 4.1569770e-4
vt 7.7338270e-2 0.91847064
vt 7.7338270e-2 0.91847064
vt 7.7338270e-2 4.1569770e-4
vt 8.0354462e-2 0.94599719
vt 8.7271133e-2 0.97073568
vt 9.5079820e-2 0.91816298
vt 9.5079820e-2 1.0803631e-4
vt 9.6712171e-2 0.94571353
vt 0.10045545 0.97050704
vt 0.10158180 1.00000000
vt 0.10820032 0.99988523
vt 0.11600740 0.99984492
vt 0.11600740 0.97042676
vt 0.11600740 0.94561392
vt 0.11600740 0.91805494
vt 0.11600740 0.0000000e+0
vt 0.12381449 0.99988523
vt 0.13043301 1.00000000
vt 0.13155936 0.97050704
vt 0.13530264 0.94571353
vt 0.13693499 0.91816298
vt 0.13693499 1.0803631e-4
vt 0.14474368 0.97073568
vt 0.15166035 0.94599719
vt 0.15467654 0.91847064
vt 0.15467654 2.9406722e-4
vt 0.15467654 4.1569770e-4
vt 0.15467654 0.91837574
vt 0.15769273 0.94589964
vt 0.16460940 0.97063091
vt 0.17241809 1.6653345e-16
vt 0.17241809 1.6653345e-16
vt 0.17241809 0.91808168
vt 0.17241809 0.91808168
vt 0.17405044 0.94562851
vt 0.17779372 0.97041238
vt 0.17892007 0.99987966
vt 0.18553859 0.99976996
vt 0.19334567 0.93913785
vt 0.19334567 0.94553330
vt 0.19334567 0.97033564
vt 0.19334567 0.99973144
vt 0.20115276 0.99976996
vt 0.20777128 0.99987966
vt 0.20889763 0.97041238
vt 0.21264091 0.94562851
vt 0.21427326 0.0000000e+0
vt 0.21427326 0.0000000e+0
vt 0.21427326 0.91808168
vt 0.21427326 0.91808168
vt 0.22208195 0.97063091
vt 0.22899862 0.94589964
vt 0.23201481 2.9406722e-4
vt 0.23201481 0.91837574
vt 0.23201481 2.9406722e-4
vt 0.23201481 0.91837574
vt 0.23503100 0.94589964
vt 0.24194767 0.97063091
vt 0.24975636 0.0000000e+0
vt 0.24975636 0.91808168
vt 0.24975636 0.0000000e+0
vt 0.24975636 0.53918216
vt 0.24975636 0.84520938
vt 0.24975636 0.91808168
vt 0.25138871 0.94562851
vt 0.25498826 0.52165571
vt 0.25498826 0.55670861
vt 0.25498826 0.82768293
vt 0.25498826 0.86273584
vt 0.25513199 0.97041238
vt 0.25625834 0.99987966
vt 0.26287686 0.99976996
vt 0.27068394 0.0000000e+0
vt 0.27068394 0.51581355
vt 0.27068394 0.56255076
vt 0.27068394 0.82184078
vt 0.27068394 0.86857799
vt 0.27068394 0.91808168
vt 0.27068394 0.93913785
vt 0.27068394 0.94553330
vt 0.27068394 0.97033564
vt 0.27068394 0.99973144
vt 0.27849103 0.99976996
vt 0.28510955 0.99987966
vt 0.28623590 0.97041238
vt 0.28637963 0.52165571
vt 0.28637963 0.55670861
vt 0.28637963 0.82768293
vt 0.28637963 0.86273584
vt 0.28997918 0.94562851
vt 0.29161153 0.0000000e+0
vt 0.29161153 0.53918216
vt 0.29161153 0.84520938
vt 0.29161153 0.91808168
vt 0.29161153 0.0000000e+0
vt 0.29161153 0.91808168
vt 0.29942022 0.97063091
vt 0.30633689 0.94589964
vt 0.30935308 5.0523660e-2
vt 0.30935308 0.12144821
vt 0.30935308 2.9406722e-4
vt 0.30935308 0.91837574
vt 0.31090600 0.11364113
vt 0.31090600 0.12925529
vt 0.31351584 2.9596075e-2
vt 0.31351584 7.1451245e-2
vt 0.31532836 0.13587382
vt 0.31532836 0.10702260
vt 0.32194689 0.10260024
vt 0.32194689 0.14029618
vt 0.32537036 1.1854525e-2
vt 0.32537036 8.9192795e-2
vt 0.32975397 0.10104732
vt 0.32975397 0.14184910
vt 0.33756105 0.10260024
vt 0.33756105 0.14029618
vt 0.34311191 0.10104732
vt 0.34311191 0.0000000e+0
vt 0.34311191 9.0899510e-16
vt 0.34311191 0.10104732
vt 0.34417958 0.13587382
vt 0.34417958 0.10702260
vt 0.34860194 0.11364113
vt 0.34860194 0.12925529
vt 0.35015486 0.12144821
vt 0.36403949 9.0899510e-16
vt 0.38496708 9.0899510e-16
vt 0.38496708 0.10104732
vt 0.38496708 0.0000000e+0
vt 0.38496708 0.10104732
vt 0.40270863 1.1854525e-2
vt 0.40270863 8.9192795e-2
vt 0.41456315 2.9596075e-2
vt 0.41456315 7.1451245e-2
vt 0.41872591 5.0523660e-2
vt 0.71084936 0.70039056
vt 0.71084936 0.70039056
vn 0.99703107 7.7000323e-2 -1.4898032e-16
vn 0.92113660 7.7000323e-2 0.38154727
vn 0.70500743 7.7000323e-2 0.70500743
vn 0.33616528 7.8041038e-2 0.93856406
vn -0.33616528 7.8041038e-2 0.93856406
vn -0.70500743 7.7000323e-2 0.70500743
vn -0.92113660 7.7000323e-2 0.38154727
vn -0.99703107 7.7000323e-2 8.5131610e-17
vn -0.92113660 7.7000323e-2 -0.38154727
vn -0.70500743 7.7000323e-2 -0.70500743
vn -0.44109046 0.10239950 -0.89160167
vn 0.44109046 0.10239950 -0.89160167
vn 0.70500743 7.7000323e-2 -0.70500743
vn 0.92113660 7.7000323e-2 -0.38154727
vn 0.89090915 -0.45418155 -1.2606070e-16
vn 0.82309273 -0.45418155 0.34093617
vn 0.62996790 -0.45418155 0.62996790
vn 0.25728182 -0.46309503 0.84814448
vn -0.25728182 -0.46309503 0.84814448
vn -0.62996790 -0.45418155 0.62996790
vn -0.82309273 -0.45418155 0.34093617
vn -0.89090915 -0.45418155 1.2606070e-16
vn -0.82309273 -0.45418155 -0.34093617
vn -0.62996790 -0.45418155 -0.62996790
vn -0.39284748 -0.70710678 -0.58793780
vn 0.39284748 -0.70710678 -0.58793780
vn 0.62996790 -0.45418155 -0.62996790
vn 0.82309273 -0.45418155 -0.34093617
vn 0.89123116 0.26349172 0.36916003
vn 0.96466166 0.26349172 -1.7061299e-16
vn 0.89123116 0.26349172 -0.36916003
vn 0.68211880 0.26349172 -0.68211880
vn 0.36916003 0.26349172 -0.89123116
vn -1.5639524e-16 0.26349172 -0.96466166
vn -0.36916003 0.26349172 -0.89123116
vn -0.68211880 0.26349172 -0.68211880
vn -0.89123116 0.26349172 -0.36916003
vn -0.96466166 0.26349172 7.1088745e-18
vn -0.89123116 0.26349172 0.36916003
vn -0.68211880 0.26349172 0.68211880
vn -0.36916003 0.26349172 0.89123116
vn -7.8197620e-17 0.26349172 0.96466166
vn 0.36916003 0.26349172 0.89123116
vn 0.68211880 0.26349172 0.68211880
vn 0.81293599 0.47513006 0.33672911
vn 0.87991558 0.47513006 -2.4109427e-16
vn 0.81293599 0.47513006 -0.33672911
vn 0.62219427 0.47513006 -0.62219427
vn 0.33672911 0.47513006 -0.81293599
vn -2.1982125e-16 0.47513006 -0.87991558
vn -0.33672911 0.47513006 -0.81293599
vn -0.62219427 0.47513006 -0.62219427
vn -0.81293599 0.47513006 -0.33672911
vn -0.87991558 0.47513006 -2.8364032e-17
vn -0.81293599 0.47513006 0.33672911
vn -0.62219427 0.47513006 0.62219427
vn -0.33672911 0.47513006 0.81293599
vn -1.4182016e-17 0.47513006 0.87991558
vn 0.33672911 0.47513006 0.81293599
vn 0.62219427 0.47513006 0.62219427
vn 0.55825023 0.79679806 0.23123481
vn 0.60424569 0.79679806 1.1720359e-15
vn 0.55825023 0.79679806 -0.23123481
vn 0.42726623 0.79679806 -0.42726623
vn 0.23123481 0.79679806 -0.55825023
vn -1.8669599e-16 0.79679806 -0.60424569
vn -0.23123481 0.79679806 -0.55825023
vn -0.42726623 0.79679806 -0.42726623
vn -0.55825023 0.79679806 -0.23123481
vn -0.60424569 0.79679806 1.3587319e-15
vn -0.55825023 0.79679806 0.23123481
vn -0.42726623 0.79679806 0.42726623
vn -0.23123481 0.79679806 0.55825023
vn -2.0743999e-17 0.79679806 0.60424569
vn 0.23123481 0.79679806 0.55825023
vn 0.42726623 0.79679806 0.42726623
vn -4.8520854e-2 2.7317681e-2 0.99844853
vn -1.0350528e-16 8.7876743e-2 0.99613136
vn 4.8520854e-2 2.7317681e-2 0.99844853
vn 6.4785925e-2 3.6475063e-2 -0.99723235
vn -8.4686136e-17 8.7876743e-2 -0.99613136
vn -6.4785925e-2 3.6475063e-2 -0.99723235
vn 2.3213929e-13 -0.44721360 0.89442719
vn -2.3213929e-13 -0.44721360 0.89442719
vn 0.0000000e+0 -0.70710678 -0.70710678
vn 0.0000000e+0 -0.70710678 -0.70710678
vn 1.7303599e-13 0.0000000e+0 1.00000000
vn 9.5791672e-18 0.0000000e+0 1.00000000
vn 3.8316669e-17 0.0000000e+0 1.00000000
vn 1.7306472e-13 0.0000000e+0 1.00000000
vn 3.8316669e-17 0.0000000e+0 1.00000000
vn -1.7298809e-13 0.0000000e+0 1.00000000
vn 9.5791672e-18 0.0000000e+0 1.00000000
vn -1.7301683e-13 0.0000000e+0 1.00000000
vn -1.7298809e-13 0.0000000e+0 1.00000000
vn 3.8316669e-17 0.0000000e+0 1.00000000
vn 1.7306472e-13 0.0000000e+0 1.00000000
vn 3.8316669e-17 0.0000000e+0 1.00000000
vn 9.5791672e-18 0.0000000e+0 1.00000000
vn 9.5791672e-18 0.0000000e+0 1.00000000
vn 1.7303599e-13 0.0000000e+0 1.00000000
vn -1.7301683e-13 0.0000000e+0 1.00000000
vn 0.0000000e+0 -1.4016981e-2 0.99990176
vn 0.0000000e+0 -0.44721360 0.89442719
g Cylinder1_Cylinder1_auv
usemtl Cylinder1_auv
s 1
f 1/18/1 15/17/15 28/26/28 14/27/14
f 1/18/1 30/19/30 29/13/29 2/12/2
f 2/12/2 16/11/16 15/17/15 1/18/1
f 2/12/2 29/13/29 44/5/44 3/4/3
f 3/4/3 17/2/17 16/11/16 2/12/2
f 3/132/3 44/128/44 43/120/43 4/126/4
f 4/126/4 18/125/18 17/131/17 3/132/3
f 4/126/4 43/120/43 42/110/42 78/109/78 79/124/79
f 5/90/5 41/95/41 40/87/40 6/86/6
f 6/86/6 20/85/20 19/89/19 5/90/5
f 6/55/6 40/54/40 39/50/39 7/51/7
f 7/51/7 21/52/21 20/57/20 6/55/6
f 7/51/7 39/50/39 38/44/38 8/45/8
f 8/45/8 22/46/22 21/52/21 7/51/7
f 8/45/8 38/44/38 37/38/37 9/36/9
f 9/36/9 23/37/23 22/46/22 8/45/8
f 9/36/9 37/38/37 36/34/36 10/32/10
f 10/32/10 24/33/24 23/37/23 9/36/9
f 10/84/10 36/82/36 35/76/35 11/80/11
f 11/80/11 25/78/25 24/83/24 10/84/10
f 11/80/11 35/76/35 34/70/34 81/69/81 82/79/82
f 12/63/12 33/65/33 32/59/32 13/58/13
f 13/58/13 27/56/27 26/61/26 12/63/12
f 13/31/13 32/29/32 31/25/31 14/27/14
f 14/27/14 28/26/28 27/30/27 13/31/13
f 14/27/14 31/25/31 30/19/30 1/18/1
f 16/135/16 17/141/17 18/148/18 84/149/84 104/156/104 83/157/83 19/159/19 20/161/20 21/163/21 22/165/22 23/164/23 24/162/24 25/160/25 86/158/86 85/150/85 26/147/26 27/142/27 28/136/28 15/129/15
f 19/89/19 83/91/83 90/96/90 97/92/97 101/93/101 87/99/87 77/94/77 5/90/5
f 26/3/26 85/1/85 80/6/80 12/8/12
f 29/13/29 45/14/45 60/10/60 44/5/44
f 30/19/30 46/20/46 45/14/45 29/13/29
f 31/25/31 47/24/47 46/20/46 30/19/30
f 32/29/32 48/28/48 47/24/47 31/25/31
f 33/65/33 12/63/12 80/64/80 81/69/81 34/70/34
f 33/65/33 49/66/49 48/60/48 32/59/32
f 34/70/34 50/71/50 49/66/49 33/65/33
f 35/76/35 51/75/51 50/71/50 34/70/34
f 36/82/36 52/81/52 51/75/51 35/76/35
f 37/38/37 53/39/53 52/35/52 36/34/36
f 38/44/38 54/43/54 53/39/53 37/38/37
f 39/50/39 55/49/55 54/43/54 38/44/38
f 40/54/40 56/53/56 55/49/55 39/50/39
f 41/95/41 5/90/5 77/94/77 78/109/78 42/110/42
f 41/95/41 57/100/57 56/88/56 40/87/40
f 42/110/42 58/111/58 57/100/57 41/95/41
f 43/120/43 59/115/59 58/111/58 42/110/42
f 44/128/44 60/127/60 59/115/59 43/120/43
f 45/14/45 61/16/61 76/15/76 60/10/60
f 46/20/46 62/21/62 61/16/61 45/14/45
f 47/24/47 63/22/63 62/21/62 46/20/46
f 48/28/48 64/23/64 63/22/63 47/24/47
f 49/66/49 65/68/65 64/67/64 48/60/48
f 50/71/50 66/72/66 65/68/65 49/66/49
f 51/75/51 67/73/67 66/72/66 50/71/50
f 52/81/52 68/74/68 67/73/67 51/75/51
f 53/39/53 69/41/69 68/40/68 52/35/52
f 54/43/54 70/42/70 69/41/69 53/39/53
f 55/49/55 71/47/71 70/42/70 54/43/54
f 56/53/56 72/48/72 71/47/71 55/49/55
f 57/100/57 73/102/73 72/101/72 56/88/56
f 58/111/58 74/112/74 73/102/73 57/100/57
f 59/115/59 75/113/75 74/112/74 58/111/58
f 60/127/60 76/114/76 75/113/75 59/115/59
f 62/155/62 63/154/63 64/151/64 65/146/65 66/144/66 67/140/67 68/137/68 69/134/69 70/130/70 71/133/71 72/138/72 73/139/73 74/143/74 75/145/75 76/152/76 61/153/61
f 77/94/77 103/108/103 79/124/79 78/109/78
f 79/124/79 94/119/94 102/123/102 95/122/95 92/116/92 84/121/84 18/125/18 4/126/4
f 79/124/79 103/108/103 100/107/100 94/119/94
f 81/69/81 80/64/80 82/79/82
f 82/9/82 86/167/86 25/166/25 11/7/11
f 86/77/86 82/79/82 80/64/80 85/62/85
f 87/99/87 100/107/100 103/108/103 77/94/77
f 88/98/88 101/93/101 97/92/97 89/97/89
f 89/97/89 96/105/96 99/106/99 88/98/88
f 91/117/91 95/122/95 102/123/102 93/118/93
f 92/116/92 98/104/98 104/103/104 84/121/84
f 93/118/93 99/106/99 96/105/96 91/117/91
f 95/122/95 91/117/91 96/105/96 89/97/89 97/92/97 90/96/90 98/104/98 92/116/92
f 99/106/99 93/118/93 102/123/102 94/119/94 100/107/100 87/99/87 101/93/101 88/98/88
f 104/103/104 98/104/98 90/96/90 83/91/83
