# Exported from Wings 3D 2.1.4.1
mtllib holoCompProject.mtl
o Cube1
#28 vertices, 26 faces
v -2.6000000e-2 -4.8000000e-2 -1.00000000
v -2.6000000e-2 -4.8000000e-2 1.00000000
v -2.6000000e-2 4.8000000e-2 -1.00000000
v -2.6000000e-2 4.8000000e-2 1.00000000
v 2.6000000e-2 -4.8000000e-2 -1.00000000
v 2.6000000e-2 -4.8000000e-2 1.00000000
v 2.6000000e-2 4.8000000e-2 -1.00000000
v 2.6000000e-2 4.8000000e-2 1.00000000
v -1.3676000e-2 4.8000000e-2 -0.33778519
v -1.3676000e-2 4.8000000e-2 0.33778519
v 1.3676000e-2 4.8000000e-2 0.33778519
v 1.3676000e-2 4.8000000e-2 -0.33778519
v -1.3676000e-2 7.9649557e-2 -0.33778519
v -1.3676000e-2 7.9649557e-2 0.33778519
v 1.3676000e-2 7.9649557e-2 0.33778519
v 1.3676000e-2 7.9649557e-2 -0.33778519
v -1.3676000e-2 0.72690268 -0.33778519
v -1.3676000e-2 0.72690268 0.33778519
v 1.3676000e-2 0.72690268 0.33778519
v 1.3676000e-2 0.72690268 -0.33778519
v 7.6423179e-2 0.72690268 -0.95780103
v 0.10377518 0.72690268 -0.95780103
v 0.10377518 7.9649557e-2 -0.95780103
v 7.6423179e-2 7.9649557e-2 -0.95780103
v 0.10377518 0.72690268 0.95780103
v 7.6423179e-2 0.72690268 0.95780103
v 7.6423179e-2 7.9649557e-2 0.95780103
v 0.10377518 7.9649557e-2 0.95780103
vt 0.0000000e+0 0.0000000e+0
vt 0.0000000e+0 4.1044894e-2
vt 0.0000000e+0 8.2089789e-2
vt 0.0000000e+0 9.5621588e-2
vt 0.0000000e+0 0.37235529
vt 0.0000000e+0 0.38588709
vt 0.0000000e+0 0.66262080
vt 0.26508838 8.2089789e-2
vt 0.26508838 9.5621588e-2
vt 0.26508838 0.37235529
vt 0.26508838 0.38588709
vt 0.26508838 0.66262080
vt 0.55392916 8.2089789e-2
vt 0.55392916 9.5621588e-2
vt 0.55392916 0.37235529
vt 0.55392916 0.38588709
vt 0.55392916 0.66262080
vt 0.81901754 8.2089789e-2
vt 0.81901754 0.35882350
vt 0.81901754 0.71764699
vt 0.81901754 0.73117879
vt 0.81901754 0.73117879
vt 0.81901754 0.74471059
vt 0.81901754 9.5621588e-2
vt 0.81901754 0.35882350
vt 0.81901754 0.37235529
vt 0.81901754 0.38588709
vt 0.81901754 0.63555720
vt 0.81901754 0.63555720
vt 0.81901754 0.66262080
vt 0.81901754 0.67660210
vt 0.81901754 0.71764699
vt 0.83071191 8.2089789e-2
vt 0.83071191 0.35882350
vt 0.83071191 0.35882350
vt 0.83071191 0.71764699
vt 0.83071191 0.73117879
vt 0.83071191 0.73117879
vt 0.83071191 0.74471059
vt 0.83071191 0.63555720
vt 0.84125019 0.63555720
vt 0.84125019 0.67660210
vt 0.84125019 0.71764699
vt 0.85510196 0.0000000e+0
vt 0.85510196 0.0000000e+0
vt 0.85510196 4.1044894e-2
vt 0.85510196 8.2089789e-2
vt 0.85510196 0.85510196
vt 0.87733461 0.0000000e+0
vt 0.87733461 0.85510196
vt 0.87733461 0.0000000e+0
vt 0.87733461 0.85510196
vt 0.88260375 0.28313059
vt 0.88260375 0.57197137
vt 0.89429813 0.28313059
vt 0.89429813 0.57197137
vt 0.89956727 0.0000000e+0
vt 0.89956727 0.85510196
vt 0.89956727 0.26508838
vt 0.89956727 0.55392916
vt 0.91126164 0.26508838
vt 0.91126164 0.55392916
vt 0.93808926 0.0000000e+0
vt 0.93808926 0.81901754
vt 0.94978363 0.0000000e+0
vt 0.94978363 0.53017676
vt 0.94978363 0.81901754
vt 0.96147801 0.0000000e+0
vt 0.96147801 0.53017676
vt 0.98830563 0.26508838
vt 0.98830563 0.26508838
vt 1.00000000 0.26508838
vn 0.0000000e+0 -1.00000000 0.0000000e+0
vn 0.0000000e+0 0.0000000e+0 -1.00000000
vn -1.00000000 0.0000000e+0 0.0000000e+0
vn 0.0000000e+0 -1.00000000 0.0000000e+0
vn 0.0000000e+0 0.0000000e+0 1.00000000
vn -1.00000000 0.0000000e+0 0.0000000e+0
vn 0.0000000e+0 0.0000000e+0 -1.00000000
vn -1.00000000 0.0000000e+0 0.0000000e+0
vn 0.0000000e+0 1.00000000 0.0000000e+0
vn 0.0000000e+0 1.00000000 0.0000000e+0
vn 0.0000000e+0 0.0000000e+0 1.00000000
vn -1.00000000 0.0000000e+0 0.0000000e+0
vn 0.0000000e+0 1.00000000 0.0000000e+0
vn 0.0000000e+0 1.00000000 0.0000000e+0
vn 0.0000000e+0 -1.00000000 0.0000000e+0
vn 0.0000000e+0 0.0000000e+0 -1.00000000
vn 1.00000000 0.0000000e+0 0.0000000e+0
vn 0.0000000e+0 -1.00000000 0.0000000e+0
vn 0.0000000e+0 0.0000000e+0 1.00000000
vn 1.00000000 0.0000000e+0 0.0000000e+0
vn 0.0000000e+0 0.0000000e+0 -1.00000000
vn 1.00000000 0.0000000e+0 0.0000000e+0
vn 0.0000000e+0 1.00000000 0.0000000e+0
vn 0.0000000e+0 1.00000000 0.0000000e+0
vn 0.0000000e+0 0.0000000e+0 1.00000000
vn 1.00000000 0.0000000e+0 0.0000000e+0
vn 0.0000000e+0 1.00000000 0.0000000e+0
vn 0.0000000e+0 1.00000000 0.0000000e+0
vn 0.0000000e+0 1.00000000 0.0000000e+0
vn 0.0000000e+0 1.00000000 0.0000000e+0
vn -1.00000000 0.0000000e+0 0.0000000e+0
vn 0.0000000e+0 0.0000000e+0 -1.00000000
vn 0.0000000e+0 1.00000000 0.0000000e+0
vn 0.0000000e+0 1.00000000 0.0000000e+0
vn -1.00000000 0.0000000e+0 0.0000000e+0
vn 0.0000000e+0 0.0000000e+0 1.00000000
vn 0.0000000e+0 1.00000000 0.0000000e+0
vn 0.0000000e+0 1.00000000 0.0000000e+0
vn 0.0000000e+0 0.0000000e+0 1.00000000
vn 1.00000000 0.0000000e+0 0.0000000e+0
vn 0.0000000e+0 1.00000000 0.0000000e+0
vn 0.0000000e+0 1.00000000 0.0000000e+0
vn 1.00000000 0.0000000e+0 0.0000000e+0
vn 0.0000000e+0 0.0000000e+0 -1.00000000
vn -1.00000000 0.0000000e+0 0.0000000e+0
vn 0.0000000e+0 0.0000000e+0 -1.00000000
vn -1.00000000 0.0000000e+0 0.0000000e+0
vn 0.0000000e+0 -1.00000000 0.0000000e+0
vn -0.98960574 0.0000000e+0 -0.14380708
vn -1.00000000 0.0000000e+0 0.0000000e+0
vn 0.0000000e+0 0.0000000e+0 1.00000000
vn -1.00000000 0.0000000e+0 0.0000000e+0
vn -0.98960574 0.0000000e+0 0.14380708
vn 0.0000000e+0 -1.00000000 0.0000000e+0
vn 0.0000000e+0 0.0000000e+0 1.00000000
vn 1.00000000 0.0000000e+0 0.0000000e+0
vn 1.00000000 0.0000000e+0 0.0000000e+0
vn 0.0000000e+0 -1.00000000 0.0000000e+0
vn 0.98960574 0.0000000e+0 -0.14380708
vn 1.00000000 0.0000000e+0 0.0000000e+0
vn 0.0000000e+0 0.0000000e+0 -1.00000000
vn 1.00000000 0.0000000e+0 0.0000000e+0
vn 0.98960574 0.0000000e+0 0.14380708
vn 0.0000000e+0 -1.00000000 0.0000000e+0
vn 0.0000000e+0 1.00000000 0.0000000e+0
vn -1.00000000 0.0000000e+0 0.0000000e+0
vn 0.0000000e+0 1.00000000 0.0000000e+0
vn -0.98960574 0.0000000e+0 -0.14380708
vn 0.0000000e+0 1.00000000 0.0000000e+0
vn -1.00000000 0.0000000e+0 0.0000000e+0
vn 0.0000000e+0 1.00000000 0.0000000e+0
vn -0.98960574 0.0000000e+0 0.14380708
vn 0.0000000e+0 1.00000000 0.0000000e+0
vn 1.00000000 0.0000000e+0 0.0000000e+0
vn 0.0000000e+0 1.00000000 0.0000000e+0
vn 0.98960574 0.0000000e+0 -0.14380708
vn 0.0000000e+0 1.00000000 0.0000000e+0
vn 1.00000000 0.0000000e+0 0.0000000e+0
vn 0.0000000e+0 1.00000000 0.0000000e+0
vn 0.98960574 0.0000000e+0 0.14380708
vn 0.0000000e+0 0.0000000e+0 -1.00000000
vn 0.0000000e+0 1.00000000 0.0000000e+0
vn -0.98960574 0.0000000e+0 -0.14380708
vn 0.0000000e+0 0.0000000e+0 -1.00000000
vn 0.0000000e+0 1.00000000 0.0000000e+0
vn 0.98960574 0.0000000e+0 0.14380708
vn 0.0000000e+0 0.0000000e+0 -1.00000000
vn 0.98960574 0.0000000e+0 0.14380708
vn 0.0000000e+0 -1.00000000 0.0000000e+0
vn 0.0000000e+0 0.0000000e+0 -1.00000000
vn 0.0000000e+0 -1.00000000 0.0000000e+0
vn -0.98960574 0.0000000e+0 -0.14380708
vn 0.0000000e+0 0.0000000e+0 1.00000000
vn 0.0000000e+0 1.00000000 0.0000000e+0
vn 0.98960574 0.0000000e+0 -0.14380708
vn 0.0000000e+0 0.0000000e+0 1.00000000
vn 0.0000000e+0 1.00000000 0.0000000e+0
vn -0.98960574 0.0000000e+0 0.14380708
vn 0.0000000e+0 0.0000000e+0 1.00000000
vn -0.98960574 0.0000000e+0 0.14380708
vn 0.0000000e+0 -1.00000000 0.0000000e+0
vn 0.0000000e+0 0.0000000e+0 1.00000000
vn 0.0000000e+0 -1.00000000 0.0000000e+0
vn 0.98960574 0.0000000e+0 -0.14380708
g Cube1_Cube1_auv
usemtl Cube1_auv
s 1
f 2/46/6 4/47/12 3/3/8 1/2/3
f 3/52/10 9/54/30 12/56/42 7/58/24
f 5/45/17 7/46/22 8/2/26 6/1/20
f 8/57/27 11/55/37 10/53/34 4/51/14
f 10/13/35 14/14/50 13/9/45 9/8/31
f 12/15/43 16/16/60 15/11/56 11/10/40
f 14/14/53 27/24/100 26/26/98 18/15/72
f 18/59/69 19/61/73 20/62/77 17/60/65
f 19/12/76 25/7/95 28/6/104 15/11/59
f 22/29/84 23/25/87 24/34/90 21/40/81
s 2
f 2/31/5 6/42/19 8/43/25 4/32/11
f 3/42/7 7/31/21 5/28/16 1/41/2
f 4/51/13 10/53/33 9/54/29 3/52/9
f 7/58/23 12/56/41 11/55/38 8/57/28
f 11/38/39 15/39/55 14/23/51 10/22/36
f 13/72/48 24/69/91 23/66/89 16/70/64
f 14/14/52 18/15/70 17/10/66 13/9/47
f 16/16/62 20/17/78 19/12/74 15/11/57
f 18/59/71 26/63/97 25/65/94 19/61/75
f 20/62/79 22/67/85 21/64/82 17/60/67
s 3
f 1/50/1 5/48/15 6/44/18 2/49/4
f 9/36/32 13/37/46 16/21/61 12/20/44
f 15/71/58 28/65/103 27/68/101 14/72/54
f 16/16/63 23/27/88 22/30/86 20/17/80
f 17/10/68 21/5/83 24/4/92 13/9/49
s 4
f 26/19/96 27/18/99 28/33/102 25/35/93
