# Exported from Wings 3D 2.1.4.1
mtllib Horizontal_Holo_sign.mtl
o Cube1
#40 vertices, 34 faces
v 2.8000000e-2 -0.95600000 3.37800000
v 2.8000000e-2 -0.95600000 -3.37800000
v 2.8000000e-2 0.95600000 -3.37800000
v 2.8000000e-2 0.95600000 3.37800000
v -2.8000000e-2 -0.95600000 -3.37800000
v -2.8000000e-2 -0.95600000 3.37800000
v -2.8000000e-2 0.95600000 3.37800000
v -2.8000000e-2 0.95600000 -3.37800000
v -1.2640000e-2 -0.95600000 -3.37800000
v -1.2640000e-2 -0.95600000 3.37800000
v -1.2640000e-2 0.95600000 3.37800000
v -1.2640000e-2 0.95600000 -3.37800000
v 1.2640000e-2 -0.95600000 3.37800000
v 1.2640000e-2 -0.95600000 -3.37800000
v 1.2640000e-2 0.95600000 -3.37800000
v 1.2640000e-2 0.95600000 3.37800000
v -2.8000000e-2 -0.93777460 -3.42200000
v -2.8000000e-2 -0.95600000 -3.37800000
v -2.8000000e-2 -1.00000000 -3.35977460
v -2.8000000e-2 -1.00000000 3.35977460
v -2.8000000e-2 -0.93777460 3.42200000
v -2.8000000e-2 -0.95600000 3.37800000
v -2.8000000e-2 0.93777460 -3.42200000
v -2.8000000e-2 0.95600000 -3.37800000
v -2.8000000e-2 1.00000000 -3.35977460
v -2.8000000e-2 1.00000000 3.35977460
v -2.8000000e-2 0.95600000 3.37800000
v -2.8000000e-2 0.93777460 3.42200000
v 2.8000000e-2 -0.93777460 -3.42200000
v 2.8000000e-2 -0.95600000 -3.37800000
v 2.8000000e-2 -1.00000000 -3.35977460
v 2.8000000e-2 -1.00000000 3.35977460
v 2.8000000e-2 -0.95600000 3.37800000
v 2.8000000e-2 -0.93777460 3.42200000
v 2.8000000e-2 0.93777460 -3.42200000
v 2.8000000e-2 1.00000000 -3.35977460
v 2.8000000e-2 0.95600000 -3.37800000
v 2.8000000e-2 1.00000000 3.35977460
v 2.8000000e-2 0.93777460 3.42200000
v 2.8000000e-2 0.95600000 3.37800000
vt 0.0000000e+0 7.1066008e-3
vt 0.0000000e+0 0.22130820
vt 0.0000000e+0 0.23552140
vt 0.0000000e+0 0.44972300
vt 0.0000000e+0 0.45682960
vt 0.0000000e+0 0.67519415
vt 0.0000000e+0 0.78163545
vt 0.0000000e+0 1.00000000
vt 5.0251256e-3 5.0251256e-3
vt 5.0251256e-3 0.22338968
vt 5.0251256e-3 0.23343993
vt 5.0251256e-3 0.45180448
vt 5.0251256e-3 5.0251256e-3
vt 5.0251256e-3 0.22338968
vt 5.0251256e-3 0.23343993
vt 5.0251256e-3 0.45180448
vt 7.1066008e-3 0.0000000e+0
vt 7.1066008e-3 0.22841480
vt 7.1066008e-3 0.22841480
vt 7.1066008e-3 0.45682960
vt 0.77158520 0.45682960
vt 0.77158520 0.67519415
vt 0.77158520 0.78163545
vt 0.77158520 0.99583705
vt 0.77158520 1.00000000
vt 0.77333942 0.45682960
vt 0.77333942 0.67519415
vt 0.77452885 0.0000000e+0
vt 0.77452885 0.22841480
vt 0.77452885 0.22841480
vt 0.77452885 0.45682960
vt 0.77509365 0.45682960
vt 0.77509365 0.67519415
vt 0.77661032 5.0251256e-3
vt 0.77661032 0.22338968
vt 0.77661032 0.23343993
vt 0.77661032 0.45180448
vt 0.77661032 5.0251256e-3
vt 0.77661032 0.22338968
vt 0.77661032 0.23343993
vt 0.77661032 0.45180448
vt 0.77684788 0.45682960
vt 0.77684788 0.67519415
vt 0.77798081 0.78163545
vt 0.77798081 0.99583705
vt 0.77798081 0.78163545
vt 0.77798081 0.99583705
vt 0.77860210 0.45682960
vt 0.77860210 0.67519415
vt 0.78163545 0.77452885
vt 0.78163545 0.78163545
vt 0.78163545 0.0000000e+0
vt 0.78163545 7.1066008e-3
vt 0.78163545 7.1066008e-3
vt 0.78163545 0.22130820
vt 0.78163545 0.23552140
vt 0.78163545 0.44972300
vt 0.78437643 0.78163545
vt 0.78437643 0.99583705
vt 0.78803106 0.77452885
vt 0.78803106 0.78163545
vt 0.78803106 0.0000000e+0
vt 0.78803106 7.1066008e-3
vt 0.78803106 0.0000000e+0
vt 0.78803106 7.1066008e-3
vt 0.78803106 0.77452885
vt 0.78803106 0.78163545
vt 0.79442668 0.0000000e+0
vt 0.79442668 7.1066008e-3
vt 0.79442668 0.77452885
vt 0.79442668 0.78163545
vt 0.79442668 0.0000000e+0
vt 0.79442668 0.77158520
vt 0.79618090 0.0000000e+0
vt 0.79618090 0.77158520
vt 0.79618090 0.0000000e+0
vt 0.79618090 0.77158520
vt 0.79793513 0.0000000e+0
vt 0.79793513 0.77158520
vt 0.79968936 0.0000000e+0
vt 0.79968936 0.77158520
vt 0.80144358 0.0000000e+0
vt 0.80144358 0.77158520
vn 1.00000000 0.0000000e+0 0.0000000e+0
vn 1.00000000 -4.3718836e-19 0.0000000e+0
vn 0.0000000e+0 1.00000000 0.0000000e+0
vn 0.0000000e+0 0.0000000e+0 -1.00000000
vn 1.00000000 0.0000000e+0 0.0000000e+0
vn 1.00000000 4.3718836e-19 0.0000000e+0
vn 0.0000000e+0 1.00000000 0.0000000e+0
vn 0.0000000e+0 0.0000000e+0 1.00000000
vn 1.00000000 4.3718836e-19 0.0000000e+0
vn 1.00000000 0.0000000e+0 0.0000000e+0
vn 0.0000000e+0 0.0000000e+0 1.00000000
vn 0.0000000e+0 -1.00000000 0.0000000e+0
vn 1.00000000 0.0000000e+0 0.0000000e+0
vn 1.00000000 -4.3718836e-19 0.0000000e+0
vn 0.0000000e+0 -1.00000000 0.0000000e+0
vn 0.0000000e+0 0.0000000e+0 -1.00000000
vn -1.00000000 0.0000000e+0 0.0000000e+0
vn -1.00000000 -4.3718836e-19 0.0000000e+0
vn 0.0000000e+0 1.00000000 0.0000000e+0
vn 0.0000000e+0 0.0000000e+0 1.00000000
vn -1.00000000 0.0000000e+0 0.0000000e+0
vn -1.00000000 4.3718836e-19 0.0000000e+0
vn 0.0000000e+0 1.00000000 0.0000000e+0
vn 0.0000000e+0 0.0000000e+0 -1.00000000
vn -1.00000000 4.3718836e-19 0.0000000e+0
vn -1.00000000 0.0000000e+0 0.0000000e+0
vn 0.0000000e+0 0.0000000e+0 -1.00000000
vn 0.0000000e+0 -1.00000000 0.0000000e+0
vn -1.00000000 0.0000000e+0 0.0000000e+0
vn -1.00000000 -4.3718836e-19 0.0000000e+0
vn 0.0000000e+0 -1.00000000 0.0000000e+0
vn 0.0000000e+0 0.0000000e+0 1.00000000
vn -1.00000000 0.0000000e+0 0.0000000e+0
vn 0.0000000e+0 1.00000000 0.0000000e+0
vn 0.0000000e+0 0.0000000e+0 1.00000000
vn -1.00000000 0.0000000e+0 0.0000000e+0
vn 0.0000000e+0 1.00000000 0.0000000e+0
vn 0.0000000e+0 0.0000000e+0 -1.00000000
vn -1.00000000 0.0000000e+0 0.0000000e+0
vn 0.0000000e+0 0.0000000e+0 -1.00000000
vn 0.0000000e+0 -1.00000000 0.0000000e+0
vn -1.00000000 0.0000000e+0 0.0000000e+0
vn 0.0000000e+0 -1.00000000 0.0000000e+0
vn 0.0000000e+0 0.0000000e+0 1.00000000
vn 1.00000000 0.0000000e+0 0.0000000e+0
vn 0.0000000e+0 1.00000000 0.0000000e+0
vn 0.0000000e+0 0.0000000e+0 -1.00000000
vn 1.00000000 0.0000000e+0 0.0000000e+0
vn 0.0000000e+0 1.00000000 0.0000000e+0
vn 0.0000000e+0 0.0000000e+0 1.00000000
vn 1.00000000 0.0000000e+0 0.0000000e+0
vn 0.0000000e+0 0.0000000e+0 1.00000000
vn 0.0000000e+0 -1.00000000 0.0000000e+0
vn 1.00000000 0.0000000e+0 0.0000000e+0
vn 0.0000000e+0 -1.00000000 0.0000000e+0
vn 0.0000000e+0 0.0000000e+0 -1.00000000
vn 0.0000000e+0 0.0000000e+0 -1.00000000
vn -1.00000000 -4.3718836e-19 0.0000000e+0
vn -1.00000000 0.0000000e+0 0.0000000e+0
vn 0.0000000e+0 -0.70710678 -0.70710678
vn -1.00000000 0.0000000e+0 0.0000000e+0
vn -1.00000000 -4.3718836e-19 0.0000000e+0
vn -1.00000000 0.0000000e+0 0.0000000e+0
vn 0.0000000e+0 -1.00000000 0.0000000e+0
vn -1.00000000 0.0000000e+0 0.0000000e+0
vn -1.00000000 0.0000000e+0 0.0000000e+0
vn 0.0000000e+0 -0.70710678 -0.70710678
vn 0.0000000e+0 -1.00000000 0.0000000e+0
vn -1.00000000 0.0000000e+0 0.0000000e+0
vn -1.00000000 0.0000000e+0 0.0000000e+0
vn 0.0000000e+0 -0.70710678 0.70710678
vn 0.0000000e+0 0.0000000e+0 1.00000000
vn -1.00000000 4.3718836e-19 0.0000000e+0
vn -1.00000000 0.0000000e+0 0.0000000e+0
vn 0.0000000e+0 -0.70710678 0.70710678
vn -1.00000000 0.0000000e+0 0.0000000e+0
vn -1.00000000 4.3718836e-19 0.0000000e+0
vn -1.00000000 0.0000000e+0 0.0000000e+0
vn 0.0000000e+0 0.0000000e+0 -1.00000000
vn -1.00000000 -4.3718836e-19 0.0000000e+0
vn 0.0000000e+0 0.70710678 -0.70710678
vn -1.00000000 0.0000000e+0 0.0000000e+0
vn -1.00000000 0.0000000e+0 0.0000000e+0
vn -1.00000000 -4.3718836e-19 0.0000000e+0
vn -1.00000000 0.0000000e+0 0.0000000e+0
vn 0.0000000e+0 1.00000000 0.0000000e+0
vn -1.00000000 0.0000000e+0 0.0000000e+0
vn 0.0000000e+0 0.70710678 -0.70710678
vn -1.00000000 0.0000000e+0 0.0000000e+0
vn 0.0000000e+0 1.00000000 0.0000000e+0
vn -1.00000000 0.0000000e+0 0.0000000e+0
vn -1.00000000 0.0000000e+0 0.0000000e+0
vn 0.0000000e+0 0.70710678 0.70710678
vn -1.00000000 4.3718836e-19 0.0000000e+0
vn -1.00000000 0.0000000e+0 0.0000000e+0
vn -1.00000000 0.0000000e+0 0.0000000e+0
vn 0.0000000e+0 0.0000000e+0 1.00000000
vn -1.00000000 4.3718836e-19 0.0000000e+0
vn -1.00000000 0.0000000e+0 0.0000000e+0
vn 0.0000000e+0 0.70710678 0.70710678
vn 0.0000000e+0 0.0000000e+0 -1.00000000
vn 1.00000000 4.3718836e-19 0.0000000e+0
vn 1.00000000 0.0000000e+0 0.0000000e+0
vn 0.0000000e+0 -0.70710678 -0.70710678
vn 1.00000000 0.0000000e+0 0.0000000e+0
vn 1.00000000 4.3718836e-19 0.0000000e+0
vn 1.00000000 0.0000000e+0 0.0000000e+0
vn 0.0000000e+0 -1.00000000 0.0000000e+0
vn 1.00000000 0.0000000e+0 0.0000000e+0
vn 1.00000000 0.0000000e+0 0.0000000e+0
vn 0.0000000e+0 -0.70710678 -0.70710678
vn 0.0000000e+0 -1.00000000 0.0000000e+0
vn 1.00000000 0.0000000e+0 0.0000000e+0
vn 0.0000000e+0 -0.70710678 0.70710678
vn 1.00000000 0.0000000e+0 0.0000000e+0
vn 1.00000000 0.0000000e+0 0.0000000e+0
vn 1.00000000 -4.3718836e-19 0.0000000e+0
vn 1.00000000 0.0000000e+0 0.0000000e+0
vn 0.0000000e+0 0.0000000e+0 1.00000000
vn 1.00000000 -4.3718836e-19 0.0000000e+0
vn 0.0000000e+0 -0.70710678 0.70710678
vn 1.00000000 0.0000000e+0 0.0000000e+0
vn 0.0000000e+0 0.0000000e+0 -1.00000000
vn 1.00000000 4.3718836e-19 0.0000000e+0
vn 1.00000000 0.0000000e+0 0.0000000e+0
vn 0.0000000e+0 0.70710678 -0.70710678
vn 0.0000000e+0 1.00000000 0.0000000e+0
vn 1.00000000 0.0000000e+0 0.0000000e+0
vn 1.00000000 0.0000000e+0 0.0000000e+0
vn 0.0000000e+0 0.70710678 -0.70710678
vn 1.00000000 4.3718836e-19 0.0000000e+0
vn 1.00000000 0.0000000e+0 0.0000000e+0
vn 1.00000000 0.0000000e+0 0.0000000e+0
vn 0.0000000e+0 1.00000000 0.0000000e+0
vn 1.00000000 0.0000000e+0 0.0000000e+0
vn 0.0000000e+0 0.70710678 0.70710678
vn 1.00000000 0.0000000e+0 0.0000000e+0
vn 0.0000000e+0 0.0000000e+0 1.00000000
vn 1.00000000 -4.3718836e-19 0.0000000e+0
vn 0.0000000e+0 0.70710678 0.70710678
vn 1.00000000 0.0000000e+0 0.0000000e+0
vn 1.00000000 0.0000000e+0 0.0000000e+0
vn 1.00000000 -4.3718836e-19 0.0000000e+0
vn 1.00000000 0.0000000e+0 0.0000000e+0
g Cube1_Cube1_auv
usemtl Cube1_auv
s 1
f 1/13/1 33/9/116 32/17/113 31/28/109 30/38/105 2/34/5
f 5/15/17 18/11/61 19/18/65 20/29/69 22/40/76 6/36/21
f 10/23/36 11/25/39 12/8/42 9/7/33
f 14/21/48 15/22/51 16/6/54 13/5/45
f 21/46/72 34/58/119 39/59/138 28/47/97
f 25/20/89 23/4/82 24/12/85
f 26/65/90 38/69/134 36/70/127 25/66/86
f 28/57/99 26/31/92 27/41/96
f 29/51/104 31/50/111 19/60/67 17/61/60
f 35/55/125 36/30/129 37/39/133
f 40/10/144 38/19/137 39/2/141
s 2
f 2/83/7 14/81/49 13/80/46 1/82/3
f 2/34/6 30/38/106 29/53/102 35/55/124 37/39/131 3/35/9
f 4/76/15 16/78/55 15/79/53 3/77/12
f 4/14/14 40/10/143 39/2/139 34/1/120 33/9/117 1/13/2
f 5/42/20 9/48/35 12/49/44 8/43/32
f 7/27/27 11/22/40 10/21/38 6/26/24
f 7/37/26 27/41/95 26/31/91 25/20/87 24/12/83 8/16/29
f 17/3/59 19/18/66 18/11/63
f 23/67/81 25/66/88 36/70/130 35/71/126
f 32/54/114 34/52/121 21/62/75 20/63/71
f 39/68/140 38/69/136 26/65/93 28/64/100
s 3
f 1/26/4 13/32/47 16/33/56 4/27/16
f 3/43/11 15/33/52 14/32/50 2/42/8
f 3/35/10 37/39/132 36/30/128 38/19/135 40/10/142 4/14/13
f 6/78/23 10/80/37 9/81/34 5/79/19
f 6/36/22 22/40/77 21/56/73 28/57/98 27/41/94 7/37/25
f 8/75/31 12/73/43 11/72/41 7/74/28
f 19/60/64 31/50/108 32/54/112 20/63/68
f 23/45/79 35/24/123 29/23/101 17/44/57
f 30/38/107 31/28/110 29/53/103
f 33/9/118 34/1/122 32/17/115
s 4
f 8/16/30 24/12/84 23/4/80 17/3/58 18/11/62 5/15/18
f 20/29/70 21/56/74 22/40/78
