# Exported from Wings 3D 2.1.4.1
mtllib shipunderpiece.mtl
o Cylinder1
#112 vertices, 98 faces
v 0.10600000 3.19222222 -3.1016856e-18
v 9.7931230e-2 3.19222222 4.0564444e-2
v 7.4953319e-2 3.19222222 7.4953319e-2
v 4.0564444e-2 3.19222222 9.7931230e-2
v -3.3831284e-17 3.19222222 0.10600000
v -4.0564444e-2 3.19222222 9.7931230e-2
v -7.4953319e-2 3.19222222 7.4953319e-2
v -9.7931230e-2 3.19222222 4.0564444e-2
v -0.10600000 3.19222222 9.8795705e-18
v -9.7931230e-2 3.19222222 -4.0564444e-2
v -7.4953319e-2 3.19222222 -7.4953319e-2
v -4.0564444e-2 3.19222222 -9.7931230e-2
v -5.9793797e-17 3.19222222 -0.10600000
v 4.0564444e-2 3.19222222 -9.7931230e-2
v 7.4953319e-2 3.19222222 -7.4953319e-2
v 9.7931230e-2 3.19222222 -4.0564444e-2
v 0.10600000 2.78644444 -3.1016856e-18
v 9.7931230e-2 2.78644444 4.0564444e-2
v 7.4953319e-2 2.78644444 7.4953319e-2
v 4.0564444e-2 2.78644444 9.7931230e-2
v -3.3831284e-17 2.78644444 0.10600000
v -4.0564444e-2 2.78644444 9.7931230e-2
v -7.4953319e-2 2.78644444 7.4953319e-2
v -9.7931230e-2 2.78644444 4.0564444e-2
v -0.10600000 2.78644444 9.8795705e-18
v -9.7931230e-2 2.78644444 -4.0564444e-2
v -7.4953319e-2 2.78644444 -7.4953319e-2
v -4.0564444e-2 2.78644444 -9.7931230e-2
v -5.9793797e-17 2.78644444 -0.10600000
v 4.0564444e-2 2.78644444 -9.7931230e-2
v 7.4953319e-2 2.78644444 -7.4953319e-2
v 9.7931230e-2 2.78644444 -4.0564444e-2
v 8.0984000e-2 2.78644444 -2.3937493e-18
v 7.4819460e-2 2.78644444 3.0991235e-2
v 5.7264336e-2 2.78644444 5.7264336e-2
v 3.0991235e-2 2.78644444 7.4819460e-2
v -3.3831284e-17 2.78644444 8.0984000e-2
v -3.0991235e-2 2.78644444 7.4819460e-2
v -5.7264336e-2 2.78644444 5.7264336e-2
v -7.4819460e-2 2.78644444 3.0991235e-2
v -8.0984000e-2 2.78644444 6.3398891e-18
v -7.4819460e-2 2.78644444 -3.0991235e-2
v -5.7264336e-2 2.78644444 -5.7264336e-2
v -3.0991235e-2 2.78644444 -7.4819460e-2
v -5.4838243e-17 2.78644444 -8.0984000e-2
v 3.0991235e-2 2.78644444 -7.4819460e-2
v 5.7264336e-2 2.78644444 -5.7264336e-2
v 7.4819460e-2 2.78644444 -3.0991235e-2
v 8.0984000e-2 1.29666667 1.7995934e-15
v 7.4819460e-2 1.29666667 3.0991235e-2
v 5.7264336e-2 1.29666667 5.7264336e-2
v 3.0991235e-2 1.29666667 7.4819460e-2
v -3.3831284e-17 1.29666667 8.0984000e-2
v -3.0991235e-2 1.29666667 7.4819460e-2
v -5.7264336e-2 1.29666667 5.7264336e-2
v -7.4819460e-2 1.29666667 3.0991235e-2
v -8.0984000e-2 1.29666667 1.8083270e-15
v -7.4819460e-2 1.29666667 -3.0991235e-2
v -5.7264336e-2 1.29666667 -5.7264336e-2
v -3.0991235e-2 1.29666667 -7.4819460e-2
v -5.4838243e-17 1.29666667 -8.0984000e-2
v 3.0991235e-2 1.29666667 -7.4819460e-2
v 5.7264336e-2 1.29666667 -5.7264336e-2
v 7.4819460e-2 1.29666667 -3.0991235e-2
v 6.8350496e-2 1.20422222 1.7679723e-15
v 6.3147624e-2 1.20422222 2.6156602e-2
v 4.8331099e-2 1.20422222 4.8331099e-2
v 2.6156602e-2 1.20422222 6.3147624e-2
v -3.5454334e-17 1.20422222 6.8350496e-2
v -2.6156602e-2 1.20422222 6.3147624e-2
v -4.8331099e-2 1.20422222 4.8331099e-2
v -6.3147624e-2 1.20422222 2.6156602e-2
v -6.8350496e-2 1.20422222 1.7753435e-15
v -6.3147624e-2 1.20422222 -2.6156602e-2
v -4.8331099e-2 1.20422222 -4.8331099e-2
v -2.6156602e-2 1.20422222 -6.3147624e-2
v -5.3184207e-17 1.20422222 -6.8350496e-2
v 2.6156602e-2 1.20422222 -6.3147624e-2
v 4.8331099e-2 1.20422222 -4.8331099e-2
v 6.3147624e-2 1.20422222 -2.6156602e-2
v 4.8118749e-2 0.61933333 3.8254729e-15
v 4.4455928e-2 0.61933333 1.8414248e-2
v 3.4025094e-2 0.61933333 3.4025094e-2
v 1.8414248e-2 0.61933333 4.4455928e-2
v -3.8053544e-17 0.61933333 4.8118749e-2
v -1.8414248e-2 0.61933333 4.4455928e-2
v -3.4025094e-2 0.61933333 3.4025094e-2
v -4.4455928e-2 0.61933333 1.8414248e-2
v -4.8118749e-2 0.61933333 3.8306623e-15
v -4.4455928e-2 0.61933333 -1.8414248e-2
v -3.4025094e-2 0.61933333 -3.4025094e-2
v -1.8414248e-2 0.61933333 -4.4455928e-2
v -5.0535374e-17 0.61933333 -4.8118749e-2
v 1.8414248e-2 0.61933333 -4.4455928e-2
v 3.4025094e-2 0.61933333 -3.4025094e-2
v 4.4455928e-2 0.61933333 -1.8414248e-2
v 2.1845912e-2 0.24244444 3.6185361e-15
v 2.0182991e-2 0.24244444 8.3600686e-3
v 1.5447393e-2 0.24244444 1.5447393e-2
v 8.3600686e-3 0.24244444 2.0182991e-2
v -4.2139233e-17 0.24244444 2.1845912e-2
v -8.3600686e-3 0.24244444 2.0182991e-2
v -1.5447393e-2 0.24244444 1.5447393e-2
v -2.0182991e-2 0.24244444 8.3600686e-3
v -2.1845912e-2 0.24244444 3.6208920e-15
v -2.0182991e-2 0.24244444 -8.3600686e-3
v -1.5447393e-2 0.24244444 -1.5447393e-2
v -8.3600686e-3 0.24244444 -2.0182991e-2
v -4.7805984e-17 0.24244444 -2.1845912e-2
v 8.3600686e-3 0.24244444 -2.0182991e-2
v 1.5447393e-2 0.24244444 -1.5447393e-2
v 2.0182991e-2 0.24244444 -8.3600686e-3
vt 0.0000000e+0 0.99982453
vt 3.2300551e-15 0.41450397
vt 3.5104120e-3 0.37811727
vt 9.1321117e-3 0.14821375
vt 1.0324299e-2 0.99995440
vt 1.0324299e-2 0.41463383
vt 1.2224121e-2 0.37822688
vt 1.5266563e-2 0.14829091
vt 1.6432421e-2 0.0000000e+0
vt 1.9217461e-2 3.5031372e-5
vt 2.2502641e-2 1.00000000
vt 2.2502641e-2 0.41467943
vt 2.2502641e-2 0.37826537
vt 2.2502641e-2 0.14831801
vt 2.2502641e-2 4.7332754e-5
vt 2.5787820e-2 3.5031372e-5
vt 2.8572861e-2 0.0000000e+0
vt 2.9738719e-2 0.14829091
vt 3.2781161e-2 0.37822688
vt 3.4680982e-2 0.99995440
vt 3.4680982e-2 0.41463383
vt 3.5873170e-2 0.14821375
vt 4.1494869e-2 0.37811727
vt 4.5005281e-2 0.99982453
vt 4.5005281e-2 0.99982453
vt 4.5005281e-2 0.41450397
vt 4.5005281e-2 0.41450397
vt 4.8515693e-2 0.37811727
vt 5.4137393e-2 0.14821375
vt 5.5329581e-2 0.99995440
vt 5.5329581e-2 0.41463383
vt 5.7229402e-2 0.37822688
vt 6.0271844e-2 0.14829091
vt 6.1437702e-2 0.0000000e+0
vt 6.4222743e-2 3.5031372e-5
vt 6.7507922e-2 1.00000000
vt 6.7507922e-2 0.41467943
vt 6.7507922e-2 0.37826537
vt 6.7507922e-2 0.14831801
vt 6.7507922e-2 4.7332754e-5
vt 7.0793102e-2 3.5031372e-5
vt 7.3578142e-2 5.5511151e-17
vt 7.4744000e-2 0.14829091
vt 7.7786442e-2 0.37822688
vt 7.9686264e-2 0.99995440
vt 7.9686264e-2 0.41463383
vt 8.0878451e-2 0.14821375
vt 8.6500151e-2 0.37811727
vt 9.0010563e-2 0.99982453
vt 9.0010563e-2 0.41450397
vt 9.0010563e-2 0.41450397
vt 9.0010563e-2 0.99982453
vt 9.3520975e-2 0.37811727
vt 9.9142674e-2 0.14821375
vt 0.10033486 0.41463383
vt 0.10033486 0.99995440
vt 0.10223468 0.37822688
vt 0.10527713 0.14829091
vt 0.10644298 0.0000000e+0
vt 0.10922802 3.5031372e-5
vt 0.11251320 0.14831801
vt 0.11251320 4.7332754e-5
vt 0.11251320 0.41467943
vt 0.11251320 0.37826537
vt 0.11251320 1.00000000
vt 0.11579838 3.5031372e-5
vt 0.11858342 0.0000000e+0
vt 0.11974928 0.14829091
vt 0.12279172 0.37822688
vt 0.12469154 0.41463383
vt 0.12469154 0.99995440
vt 0.12588373 0.14821375
vt 0.13150543 0.37811727
vt 0.13501584 0.41450397
vt 0.13501584 0.99982453
vt 0.13501584 0.41450397
vt 0.13501584 0.99982453
vt 0.13852626 0.37811727
vt 0.14414796 0.14821375
vt 0.14534014 0.41463383
vt 0.14534014 0.99995440
vt 0.14723996 0.37822688
vt 0.15028241 0.14829091
vt 0.15144826 0.0000000e+0
vt 0.15423331 3.5031372e-5
vt 0.15751848 4.7332754e-5
vt 0.15751848 0.14831801
vt 0.15751848 0.37826537
vt 0.15751848 0.41467943
vt 0.15751848 1.00000000
vt 0.16080366 3.5031372e-5
vt 0.16358871 0.0000000e+0
vt 0.16475456 0.14829091
vt 0.16779701 0.37822688
vt 0.16969683 0.41463383
vt 0.16969683 0.99995440
vt 0.17088901 0.14821375
vt 0.17651071 0.37811727
vt 0.18002113 8.3266727e-17
vt 0.18002113 0.64640367
vt 0.18002113 0.15945477
vt 0.18002113 0.31890954
vt 0.18002113 0.41450397
vt 0.18002113 0.47836431
vt 0.18002113 0.99982453
vt 0.18002113 0.15945477
vt 0.18002113 0.63781909
vt 0.18067459 0.64311849
vt 0.18067459 0.64968885
vt 0.18253549 0.64033345
vt 0.18253549 0.65247389
vt 0.18532053 0.63847255
vt 0.18532053 0.65433480
vt 0.18860571 0.63781909
vt 0.18860571 0.65498826
vt 0.19189089 0.63847255
vt 0.19189089 0.65433480
vt 0.19353461 8.3266727e-17
vt 0.19353461 0.15945477
vt 0.19353461 0.15945477
vt 0.19353461 0.31890954
vt 0.19353461 0.47836431
vt 0.19353461 0.63781909
vt 0.19467593 0.64033345
vt 0.19467593 0.65247389
vt 0.19653684 0.64311849
vt 0.19653684 0.64968885
vt 0.19719030 0.64640367
vt 0.20947484 8.3266727e-17
vt 0.20947484 0.15945477
vt 0.20947484 0.31890954
vt 0.20947484 0.47836431
vt 0.20947484 0.63781909
vt 0.20947484 0.15945477
vt 0.22541508 8.3266727e-17
vt 0.22541508 0.31890954
vt 0.22541508 0.47836431
vt 0.22541508 0.63781909
vt 0.22541508 0.15945477
vt 0.22541508 0.15945477
vt 0.22541508 0.31890954
vt 0.23892856 8.3266727e-17
vt 0.23892856 0.31890954
vt 0.23892856 0.47836431
vt 0.23892856 0.15945477
vt 0.23892856 0.15945477
vt 0.23892856 0.31890954
vt 0.23892856 0.63781909
vt 0.23892856 4.1653848e-2
vt 0.23892856 0.12496154
vt 0.24209927 2.5713610e-2
vt 0.24209927 5.7594085e-2
vt 0.24209927 0.10902131
vt 0.24209927 0.14090178
vt 0.24875887 0.12496154
vt 0.25112869 1.2200130e-2
vt 0.25112869 7.1107566e-2
vt 0.25112869 9.5507825e-2
vt 0.25112869 0.15441526
vt 0.25118129 0.11278320
vt 0.25118129 0.13713988
vt 0.25807977 0.10245890
vt 0.25807977 0.14746418
vt 0.26464217 3.1707104e-3
vt 0.26464217 8.0136985e-2
vt 0.26464217 8.6478406e-2
vt 0.26464217 0.16344468
vt 0.26840407 9.5560426e-2
vt 0.26840407 0.15436266
vt 0.28058241 0.0000000e+0
vt 0.28058241 8.3307695e-2
vt 0.28058241 8.3307695e-2
vt 0.28058241 9.3138004e-2
vt 0.28058241 0.15678508
vt 0.28058241 0.16661539
vt 0.29276075 9.5560426e-2
vt 0.29276075 0.15436266
vt 0.29652265 3.1707104e-3
vt 0.29652265 8.0136985e-2
vt 0.29652265 8.6478406e-2
vt 0.29652265 0.16344468
vt 0.30308505 0.10245890
vt 0.30308505 0.14746418
vt 0.30998353 0.11278320
vt 0.30998353 0.13713988
vt 0.31003613 1.2200130e-2
vt 0.31003613 7.1107566e-2
vt 0.31003613 9.5507825e-2
vt 0.31003613 0.15441526
vt 0.31240595 0.12496154
vt 0.31906555 2.5713610e-2
vt 0.31906555 5.7594085e-2
vt 0.31906555 0.10902131
vt 0.31906555 0.14090178
vt 0.32223626 4.1653848e-2
vt 0.32223626 0.12496154
vn 0.89090915 0.45418155 -8.3200064e-16
vn 0.82309273 0.45418155 0.34093617
vn 0.62996790 0.45418155 0.62996790
vn 0.34093617 0.45418155 0.82309273
vn 0.0000000e+0 0.45418155 0.89090915
vn -0.34093617 0.45418155 0.82309273
vn -0.62996790 0.45418155 0.62996790
vn -0.82309273 0.45418155 0.34093617
vn -0.89090915 0.45418155 -6.8072780e-16
vn -0.82309273 0.45418155 -0.34093617
vn -0.62996790 0.45418155 -0.62996790
vn -0.34093617 0.45418155 -0.82309273
vn -1.7648498e-16 0.45418155 -0.89090915
vn 0.34093617 0.45418155 -0.82309273
vn 0.62996790 0.45418155 -0.62996790
vn 0.82309273 0.45418155 -0.34093617
vn 0.70021451 -0.71393252 -3.9631216e-17
vn 0.64691385 -0.71393252 0.26796049
vn 0.49512643 -0.71393252 0.49512643
vn 0.26796049 -0.71393252 0.64691385
vn 0.0000000e+0 -0.71393252 0.70021451
vn -0.26796049 -0.71393252 0.64691385
vn -0.49512643 -0.71393252 0.49512643
vn -0.64691385 -0.71393252 0.26796049
vn -0.70021451 -0.71393252 7.9262432e-17
vn -0.64691385 -0.71393252 -0.26796049
vn -0.49512643 -0.71393252 -0.49512643
vn -0.26796049 -0.71393252 -0.64691385
vn -1.3870926e-16 -0.71393252 -0.70021451
vn 0.26796049 -0.71393252 -0.64691385
vn 0.49512643 -0.71393252 -0.49512643
vn 0.64691385 -0.71393252 -0.26796049
vn 0.70021451 -0.71393252 -4.9539020e-17
vn 0.64691385 -0.71393252 0.26796049
vn 0.49512643 -0.71393252 0.49512643
vn 0.26796049 -0.71393252 0.64691385
vn 0.0000000e+0 -0.71393252 0.70021451
vn -0.26796049 -0.71393252 0.64691385
vn -0.49512643 -0.71393252 0.49512643
vn -0.64691385 -0.71393252 0.26796049
vn -0.70021451 -0.71393252 1.2880145e-16
vn -0.64691385 -0.71393252 -0.26796049
vn -0.49512643 -0.71393252 -0.49512643
vn -0.26796049 -0.71393252 -0.64691385
vn 9.9078040e-18 -0.71393252 -0.70021451
vn 0.26796049 -0.71393252 -0.64691385
vn 0.49512643 -0.71393252 -0.49512643
vn 0.64691385 -0.71393252 -0.26796049
vn 0.99769423 -6.7869230e-2 -8.5079308e-17
vn 0.92174927 -6.7869230e-2 0.38180105
vn 0.70547635 -6.7869230e-2 0.70547635
vn 0.38180105 -6.7869230e-2 0.92174927
vn 0.0000000e+0 -6.7869230e-2 0.99769423
vn -0.38180105 -6.7869230e-2 0.92174927
vn -0.70547635 -6.7869230e-2 0.70547635
vn -0.92174927 -6.7869230e-2 0.38180105
vn -0.99769423 -6.7869230e-2 2.0560833e-16
vn -0.92174927 -6.7869230e-2 -0.38180105
vn -0.70547635 -6.7869230e-2 -0.70547635
vn -0.38180105 -6.7869230e-2 -0.92174927
vn 1.4179885e-17 -6.7869230e-2 -0.99769423
vn 0.38180105 -6.7869230e-2 -0.92174927
vn 0.70547635 -6.7869230e-2 -0.70547635
vn 0.92174927 -6.7869230e-2 -0.38180105
vn 0.99637214 -8.5103258e-2 -7.7908517e-17
vn 0.92052782 -8.5103258e-2 0.38129511
vn 0.70454149 -8.5103258e-2 0.70454149
vn 0.38129511 -8.5103258e-2 0.92052782
vn 0.0000000e+0 -8.5103258e-2 0.99637214
vn -0.38129511 -8.5103258e-2 0.92052782
vn -0.70454149 -8.5103258e-2 0.70454149
vn -0.92052782 -8.5103258e-2 0.38129511
vn -0.99637214 -8.5103258e-2 2.7622111e-16
vn -0.92052782 -8.5103258e-2 -0.38129511
vn -0.70454149 -8.5103258e-2 -0.70454149
vn -0.38129511 -8.5103258e-2 -0.92052782
vn 1.4165185e-17 -8.5103258e-2 -0.99637214
vn 0.38129511 -8.5103258e-2 -0.92052782
vn 0.70454149 -8.5103258e-2 -0.70454149
vn 0.92052782 -8.5103258e-2 -0.38129511
vn 0.99864374 -5.2064129e-2 -4.9528595e-17
vn 0.92262651 -5.2064129e-2 0.38216442
vn 0.70614776 -5.2064129e-2 0.70614776
vn 0.38216442 -5.2064129e-2 0.92262651
vn 1.4151027e-17 -5.2064129e-2 0.99864374
vn -0.38216442 -5.2064129e-2 0.92262651
vn -0.70614776 -5.2064129e-2 0.70614776
vn -0.92262651 -5.2064129e-2 0.38216442
vn -0.99864374 -5.2064129e-2 3.6792670e-16
vn -0.92262651 -5.2064129e-2 -0.38216442
vn -0.70614776 -5.2064129e-2 -0.70614776
vn -0.38216442 -5.2064129e-2 -0.92262651
vn 1.4151027e-17 -5.2064129e-2 -0.99864374
vn 0.38216442 -5.2064129e-2 -0.92262651
vn 0.70614776 -5.2064129e-2 -0.70614776
vn 0.92262651 -5.2064129e-2 -0.38216442
vn 0.86477005 -0.50216806 -2.4529553e-17
vn 0.79894335 -0.50216806 0.33093317
vn 0.61148477 -0.50216806 0.61148477
vn 0.33093317 -0.50216806 0.79894335
vn 2.4529553e-17 -0.50216806 0.86477005
vn -0.33093317 -0.50216806 0.79894335
vn -0.61148477 -0.50216806 0.61148477
vn -0.79894335 -0.50216806 0.33093317
vn -0.86477005 -0.50216806 3.6794329e-16
vn -0.79894335 -0.50216806 -0.33093317
vn -0.61148477 -0.50216806 -0.61148477
vn -0.33093317 -0.50216806 -0.79894335
vn 1.2264776e-17 -0.50216806 -0.86477005
vn 0.33093317 -0.50216806 -0.79894335
vn 0.61148477 -0.50216806 -0.61148477
vn 0.79894335 -0.50216806 -0.33093317
g Cylinder1_Cylinder1_auv
usemtl Cylinder1_auv
s 1
f 1/195/1 16/192/16 15/187/15 14/179/14 13/172/13 12/165/12 11/157/11 10/152/10 9/149/9 8/151/8 7/156/7 6/164/6 5/170/5 4/178/4 3/186/3 2/191/2
f 1/131/1 17/130/17 32/139/32 16/141/16
f 2/121/2 18/119/18 17/130/17 1/131/1
f 3/102/3 19/101/19 18/119/18 2/121/2
f 4/138/4 20/137/20 19/144/19 3/148/3
f 5/133/5 21/132/21 20/137/20 4/138/4
f 6/123/6 22/122/22 21/132/21 5/133/5
f 7/107/7 23/104/23 22/122/22 6/123/6
f 8/137/8 24/136/24 23/143/23 7/144/7
f 9/132/9 25/131/25 24/136/24 8/137/8
f 10/122/10 26/121/26 25/131/25 9/132/9
f 11/104/11 27/102/27 26/121/26 10/122/10
f 12/140/12 28/135/28 27/142/27 11/146/11
f 13/134/13 29/129/29 28/135/28 12/140/12
f 14/120/14 30/118/30 29/129/29 13/134/13
f 15/106/15 31/99/31 30/118/30 14/120/14
f 16/141/16 32/139/32 31/145/31 15/147/15
f 17/150/17 33/155/33 48/161/48 32/154/32
f 18/153/18 34/160/34 33/155/33 17/150/17
f 19/158/19 35/162/35 34/160/34 18/153/18
f 20/166/20 36/168/36 35/162/35 19/158/19
f 21/171/21 37/173/37 36/168/36 20/166/20
f 22/180/22 38/176/38 37/173/37 21/171/21
f 23/188/23 39/182/39 38/176/38 22/180/22
f 24/193/24 40/184/40 39/182/39 23/188/23
f 25/196/25 41/190/41 40/184/40 24/193/24
f 26/194/26 42/185/42 41/190/41 25/196/25
f 27/189/27 43/183/43 42/185/42 26/194/26
f 28/181/28 44/177/44 43/183/43 27/189/27
f 29/175/29 45/174/45 44/177/44 28/181/28
f 30/167/30 46/169/46 45/174/45 29/175/29
f 31/159/31 47/163/47 46/169/46 30/167/30
f 32/154/32 48/161/48 47/163/47 31/159/31
f 33/65/33 49/63/49 64/70/64 48/71/48
f 34/56/34 50/55/50 49/63/49 33/65/33
f 35/52/35 51/51/51 50/55/50 34/56/34
f 36/96/36 52/95/52 51/103/51 35/105/35
f 37/90/37 53/89/53 52/95/52 36/96/36
f 38/81/38 54/80/54 53/89/53 37/90/37
f 39/77/39 55/76/55 54/80/54 38/81/38
f 40/20/40 56/21/56 55/26/55 39/24/39
f 41/11/41 57/12/57 56/21/56 40/20/40
f 42/5/42 58/6/58 57/12/57 41/11/41
f 43/1/43 59/2/59 58/6/58 42/5/42
f 44/45/44 60/46/60 59/50/59 43/49/43
f 45/36/45 61/37/61 60/46/60 44/45/44
f 46/30/46 62/31/62 61/37/61 45/36/45
f 47/25/47 63/27/63 62/31/62 46/30/46
f 48/71/48 64/70/64 63/74/63 47/75/47
f 49/63/49 65/64/65 80/69/80 64/70/64
f 50/55/50 66/57/66 65/64/65 49/63/49
f 51/51/51 67/53/67 66/57/66 50/55/50
f 52/95/52 68/94/68 67/98/67 51/103/51
f 53/89/53 69/88/69 68/94/68 52/95/52
f 54/80/54 70/82/70 69/88/69 53/89/53
f 55/76/55 71/78/71 70/82/70 54/80/54
f 56/21/56 72/19/72 71/23/71 55/26/55
f 57/12/57 73/13/73 72/19/72 56/21/56
f 58/6/58 74/7/74 73/13/73 57/12/57
f 59/2/59 75/3/75 74/7/74 58/6/58
f 60/46/60 76/44/76 75/48/75 59/50/59
f 61/37/61 77/38/77 76/44/76 60/46/60
f 62/31/62 78/32/78 77/38/77 61/37/61
f 63/27/63 79/28/79 78/32/78 62/31/62
f 64/70/64 80/69/80 79/73/79 63/74/63
f 65/64/65 81/61/81 96/68/96 80/69/80
f 66/57/66 82/58/82 81/61/81 65/64/65
f 67/53/67 83/54/83 82/58/82 66/57/66
f 68/94/68 84/93/84 83/97/83 67/98/67
f 69/88/69 85/87/85 84/93/84 68/94/68
f 70/82/70 86/83/86 85/87/85 69/88/69
f 71/78/71 87/79/87 86/83/86 70/82/70
f 72/19/72 88/18/88 87/22/87 71/23/71
f 73/13/73 89/14/89 88/18/88 72/19/72
f 74/7/74 90/8/90 89/14/89 73/13/73
f 75/3/75 91/4/91 90/8/90 74/7/74
f 76/44/76 92/43/92 91/47/91 75/48/75
f 77/38/77 93/39/93 92/43/92 76/44/76
f 78/32/78 94/33/94 93/39/93 77/38/77
f 79/28/79 95/29/95 94/33/94 78/32/78
f 80/69/80 96/68/96 95/72/95 79/73/79
f 81/61/81 97/62/97 112/66/112 96/68/96
f 82/58/82 98/60/98 97/62/97 81/61/81
f 83/54/83 99/59/99 98/60/98 82/58/82
f 84/93/84 100/91/100 99/92/99 83/97/83
f 85/87/85 101/86/101 100/91/100 84/93/84
f 86/83/86 102/85/102 101/86/101 85/87/85
f 87/79/87 103/84/103 102/85/102 86/83/86
f 88/18/88 104/16/104 103/17/103 87/22/87
f 89/14/89 105/15/105 104/16/104 88/18/88
f 90/8/90 106/10/106 105/15/105 89/14/89
f 91/4/91 107/9/107 106/10/106 90/8/90
f 92/43/92 108/41/108 107/42/107 91/47/91
f 93/39/93 109/40/109 108/41/108 92/43/92
f 94/33/94 110/35/110 109/40/109 93/39/93
f 95/29/95 111/34/111 110/35/110 94/33/94
f 96/68/96 112/66/112 111/67/111 95/72/95
f 98/108/98 99/110/99 100/112/100 101/114/101 102/116/102 103/124/103 104/126/104 105/128/105 106/127/106 107/125/107 108/117/108 109/115/109 110/113/110 111/111/111 112/109/112 97/100/97
