# Exported from Wings 3D 2.1.4.1
mtllib walllight.mtl
o Cube1
#24 vertices, 22 faces
v -0.17400000 -1.00000000 -1.00000000
v -0.17400000 -1.00000000 1.00000000
v -0.17400000 1.00000000 -0.58200000
v -0.17400000 1.00000000 0.58200000
v 4.0306560e-2 -0.84050032 0.80371857
v 4.0306560e-2 -0.84050032 -0.80371857
v 4.0306560e-2 0.84050032 -0.45238943
v 4.0306560e-2 0.84050032 0.45238943
v 0.12660411 -1.00000000 -1.00000000
v 0.17400000 -0.97011013 -0.96321731
v 0.17400000 -0.97011013 0.96321731
v 0.12660411 -1.00000000 1.00000000
v 0.12660411 1.00000000 -0.58200000
v 0.17400000 0.96321731 -0.55211013
v 0.12660411 1.00000000 0.58200000
v 0.17400000 0.96321731 0.55211013
v 0.17400000 -0.87039019 0.84050125
v 0.12660411 -0.84050032 0.80371857
v 0.17400000 -0.87039019 -0.84050125
v 0.12660411 -0.84050032 -0.80371857
v 0.17400000 0.87728301 -0.48227930
v 0.12660411 0.84050032 -0.45238943
v 0.17400000 0.87728301 0.48227930
v 0.12660411 0.84050032 0.45238943
vn 0.0000000e+0 -1.00000000 0.0000000e+0
vn 0.0000000e+0 0.20457963 -0.97884992
vn -1.00000000 0.0000000e+0 0.0000000e+0
vn 0.0000000e+0 -1.00000000 0.0000000e+0
vn 0.0000000e+0 0.20457963 0.97884992
vn -1.00000000 0.0000000e+0 0.0000000e+0
vn 0.0000000e+0 1.00000000 0.0000000e+0
vn 0.0000000e+0 0.20457963 -0.97884992
vn -1.00000000 0.0000000e+0 0.0000000e+0
vn 0.0000000e+0 1.00000000 0.0000000e+0
vn 0.0000000e+0 0.20457963 0.97884992
vn -1.00000000 0.0000000e+0 0.0000000e+0
vn 1.00000000 0.0000000e+0 0.0000000e+0
vn 0.0000000e+0 1.00000000 0.0000000e+0
vn 0.0000000e+0 -0.20457963 -0.97884992
vn 1.00000000 0.0000000e+0 0.0000000e+0
vn 0.0000000e+0 1.00000000 0.0000000e+0
vn 0.0000000e+0 -0.20457963 0.97884992
vn 1.00000000 0.0000000e+0 0.0000000e+0
vn 0.0000000e+0 -0.20457963 0.97884992
vn 0.0000000e+0 -1.00000000 0.0000000e+0
vn 1.00000000 0.0000000e+0 0.0000000e+0
vn 0.0000000e+0 -1.00000000 0.0000000e+0
vn 0.0000000e+0 -0.20457963 -0.97884992
vn 0.0000000e+0 -1.00000000 0.0000000e+0
vn 0.0000000e+0 0.20457963 -0.97884992
vn 0.57523547 0.16871638 -0.80039923
vn 0.53342675 -0.84584626 0.0000000e+0
vn 1.00000000 0.0000000e+0 0.0000000e+0
vn 1.00000000 0.0000000e+0 0.0000000e+0
vn 0.57523547 0.16871638 -0.80039923
vn 0.53342675 -0.84584626 0.0000000e+0
vn 1.00000000 0.0000000e+0 0.0000000e+0
vn 1.00000000 0.0000000e+0 0.0000000e+0
vn 0.53342675 -0.84584626 0.0000000e+0
vn 0.57523547 0.16871638 0.80039923
vn 0.0000000e+0 -1.00000000 0.0000000e+0
vn 0.0000000e+0 0.20457963 0.97884992
vn 0.53342675 -0.84584626 0.0000000e+0
vn 0.57523547 0.16871638 0.80039923
vn 0.0000000e+0 1.00000000 0.0000000e+0
vn 0.0000000e+0 0.20457963 -0.97884992
vn 0.57523547 0.16871638 -0.80039923
vn 0.61310128 0.79000432 0.0000000e+0
vn 1.00000000 0.0000000e+0 0.0000000e+0
vn 1.00000000 0.0000000e+0 0.0000000e+0
vn 0.57523547 0.16871638 -0.80039923
vn 0.61310128 0.79000432 0.0000000e+0
vn 0.0000000e+0 1.00000000 0.0000000e+0
vn 0.0000000e+0 0.20457963 0.97884992
vn 0.57523547 0.16871638 0.80039923
vn 0.61310128 0.79000432 0.0000000e+0
vn 1.00000000 0.0000000e+0 0.0000000e+0
vn 1.00000000 0.0000000e+0 0.0000000e+0
vn 0.57523547 0.16871638 0.80039923
vn 0.61310128 0.79000432 0.0000000e+0
vn 1.00000000 0.0000000e+0 0.0000000e+0
vn 1.00000000 0.0000000e+0 0.0000000e+0
vn 0.53342675 0.84584626 0.0000000e+0
vn 0.57538186 -0.16574621 -0.80091442
vn 0.0000000e+0 1.00000000 0.0000000e+0
vn 0.0000000e+0 -0.20457963 -0.97884992
vn 0.53342675 0.84584626 0.0000000e+0
vn 0.57538186 -0.16574621 -0.80091442
vn 1.00000000 0.0000000e+0 0.0000000e+0
vn 1.00000000 0.0000000e+0 0.0000000e+0
vn 0.53342675 0.84584626 0.0000000e+0
vn 0.57538186 -0.16574621 0.80091442
vn 0.0000000e+0 1.00000000 0.0000000e+0
vn 0.0000000e+0 -0.20457963 0.97884992
vn 0.53342675 0.84584626 0.0000000e+0
vn 0.57538186 -0.16574621 0.80091442
vn 1.00000000 0.0000000e+0 0.0000000e+0
vn 1.00000000 0.0000000e+0 0.0000000e+0
vn 0.57538186 -0.16574621 0.80091442
vn 0.61310128 -0.79000432 0.0000000e+0
vn 0.0000000e+0 -0.20457963 0.97884992
vn 0.0000000e+0 -1.00000000 0.0000000e+0
vn 0.57538186 -0.16574621 0.80091442
vn 0.61310128 -0.79000432 0.0000000e+0
vn 1.00000000 0.0000000e+0 0.0000000e+0
vn 1.00000000 0.0000000e+0 0.0000000e+0
vn 0.57538186 -0.16574621 -0.80091442
vn 0.61310128 -0.79000432 0.0000000e+0
vn 0.0000000e+0 -1.00000000 0.0000000e+0
vn 0.0000000e+0 -0.20457963 -0.97884992
vn 0.57538186 -0.16574621 -0.80091442
vn 0.61310128 -0.79000432 0.0000000e+0
g Cube1_default
usemtl default
s 1
f 2//6 4//12 3//9 1//3
f 6//16 7//19 8//22 5//13
f 9//27 13//43 14//47 10//31
f 11//36 16//55 15//51 12//40
f 14//46 16//53 23//81 21//74
f 18//64 24//87 23//83 17//60
f 19//65 17//57 11//33 10//29
f 19//68 21//75 22//79 20//72
s 2
f 2//5 12//38 15//50 4//11
f 3//8 13//42 9//26 1//2
f 5//14 18//61 20//69 6//17
f 7//21 22//78 24//85 8//23
f 10//30 14//45 21//73 19//66
f 12//39 9//28 10//32 11//35
f 16//56 14//48 13//44 15//52
f 17//58 23//82 16//54 11//34
s 3
f 1//1 9//25 12//37 2//4
f 4//10 15//49 13//41 3//7
f 6//18 20//70 22//77 7//20
f 8//24 24//86 18//62 5//15
f 17//59 19//67 20//71 18//63
f 21//76 23//84 24//88 22//80
