# Exported from Wings 3D 2.1.4.1
mtllib CeillingLight.mtl
o octotoad2
#32 vertices, 26 faces
v 0.21000000 0.23629870 0.27533333
v 0.21000000 0.23629870 -0.27533333
v 0.21000000 0.11629870 0.27533333
v 0.21000000 0.11629870 -0.27533333
v -0.21000000 0.23629870 0.27533333
v -0.21000000 0.23629870 -0.27533333
v -0.21000000 0.11629870 0.27533333
v -0.21000000 0.11629870 -0.27533333
v 7.0000000e-2 0.23629870 0.82600000
v 7.0000000e-2 0.23629870 -0.82600000
v 7.0000000e-2 0.11629870 0.82600000
v 7.0000000e-2 0.11629870 -0.82600000
v -7.0000000e-2 0.23629870 0.82600000
v -7.0000000e-2 0.23629870 -0.82600000
v -7.0000000e-2 0.11629870 0.82600000
v -7.0000000e-2 0.11629870 -0.82600000
v 3.7668431e-2 0.23629870 0.78442000
v 0.16842000 0.23629870 0.27013050
v 0.16842000 0.23629870 -0.27013050
v 3.7668431e-2 0.23629870 -0.78442000
v -3.7668431e-2 0.23629870 -0.78442000
v -0.16842000 0.23629870 -0.27013050
v -0.16842000 0.23629870 0.27013050
v -3.7668431e-2 0.23629870 0.78442000
v 3.7668431e-2 0.26330996 0.78442000
v 0.16842000 0.26330996 0.27013050
v 0.16842000 0.26330996 -0.27013050
v 3.7668431e-2 0.26330996 -0.78442000
v -3.7668431e-2 0.26330996 -0.78442000
v -0.16842000 0.26330996 -0.27013050
v -0.16842000 0.26330996 0.27013050
v -3.7668431e-2 0.26330996 0.78442000
vt 0.0000000e+0 0.0000000e+0
vt 0.0000000e+0 6.1664240e-2
vt 0.0000000e+0 6.1664240e-2
vt 0.0000000e+0 0.12332848
vt 0.0000000e+0 0.68926917
vt 0.0000000e+0 0.97223952
vt 0.0000000e+0 0.98611976
vt 0.0000000e+0 0.98611976
vt 0.0000000e+0 1.00000000
vt 2.7755576e-17 0.40629883
vt 7.1941614e-2 0.97223952
vt 7.1941614e-2 0.12332848
vt 0.14388323 0.97223952
vt 0.14388323 0.12332848
vt 0.21582484 0.68926917
vt 0.21582484 0.40629883
vt 0.21582484 0.68926917
vt 0.23719150 0.40897240
vt 0.23719150 0.68659560
vt 0.26427726 0.97223952
vt 0.26427726 0.98611976
vt 0.26427726 0.98611976
vt 0.26427726 1.00000000
vt 0.28297035 0.0000000e+0
vt 0.28297035 6.1664240e-2
vt 0.28297035 6.1664240e-2
vt 0.28297035 0.12332848
vt 0.28776645 0.12332848
vt 0.28776645 0.97223952
vt 0.30438063 0.14469514
vt 0.30438063 0.95087286
vt 0.34309389 0.14469514
vt 0.34309389 0.95087286
vt 0.35970807 0.12332848
vt 0.35970807 0.97223952
vt 0.41028302 0.40897240
vt 0.41028302 0.68659560
vt 0.43164968 0.40629883
vt 0.43164968 0.68926917
vt 0.43164968 0.38760574
vt 0.43164968 0.66522894
vt 0.43164968 0.92950620
vt 0.43164968 0.94338644
vt 0.47036293 0.92950620
vt 0.47036293 0.94338644
vt 0.47036293 0.92950620
vt 0.47036293 0.94338644
vt 0.49883882 0.12332848
vt 0.49883882 0.92950620
vt 0.50907619 0.92950620
vt 0.50907619 0.94338644
vt 0.53755207 0.12332848
vt 0.53755207 0.92950620
vt 0.54190046 0.97223952
vt 0.54190046 0.98611976
vt 0.54190046 0.98611976
vt 0.54190046 1.00000000
vt 0.56594069 0.0000000e+0
vt 0.56594069 6.1664240e-2
vt 0.56594069 6.1664240e-2
vt 0.56594069 0.12332848
vt 0.60474120 0.12332848
vt 0.60474120 0.18499272
vt 0.60474120 0.38760574
vt 0.60474120 0.66522894
vt 0.67668282 0.12332848
vt 0.67668282 0.12332848
vt 0.67668282 0.18499272
vt 0.74862443 0.12332848
vt 0.74862443 0.18499272
vt 0.80617772 0.97223952
vt 0.80617772 0.98611976
vt 0.80617772 0.98611976
vt 0.80617772 1.00000000
vt 0.84891104 0.0000000e+0
vt 0.84891104 6.1664240e-2
vt 0.84891104 6.1664240e-2
vt 0.84891104 0.12332848
vn 1.00000000 0.0000000e+0 0.0000000e+0
vn 0.96916853 0.0000000e+0 0.24639878
vn 0.0000000e+0 1.00000000 0.0000000e+0
vn 0.0000000e+0 1.00000000 0.0000000e+0
vn 1.00000000 0.0000000e+0 0.0000000e+0
vn 0.96916853 0.0000000e+0 -0.24639878
vn 0.0000000e+0 1.00000000 0.0000000e+0
vn 0.0000000e+0 1.00000000 0.0000000e+0
vn 1.00000000 0.0000000e+0 0.0000000e+0
vn 0.96916853 0.0000000e+0 0.24639878
vn 0.0000000e+0 -1.00000000 6.4290290e-18
vn 1.00000000 0.0000000e+0 0.0000000e+0
vn 0.96916853 0.0000000e+0 -0.24639878
vn 0.0000000e+0 -1.00000000 6.4290290e-18
vn -1.00000000 0.0000000e+0 0.0000000e+0
vn -0.96916853 0.0000000e+0 0.24639878
vn 0.0000000e+0 1.00000000 0.0000000e+0
vn 0.0000000e+0 1.00000000 0.0000000e+0
vn -1.00000000 0.0000000e+0 0.0000000e+0
vn -0.96916853 0.0000000e+0 -0.24639878
vn 0.0000000e+0 1.00000000 0.0000000e+0
vn 0.0000000e+0 1.00000000 0.0000000e+0
vn -1.00000000 0.0000000e+0 0.0000000e+0
vn -0.96916853 0.0000000e+0 0.24639878
vn 0.0000000e+0 -1.00000000 6.4290290e-18
vn -1.00000000 0.0000000e+0 0.0000000e+0
vn -0.96916853 0.0000000e+0 -0.24639878
vn 0.0000000e+0 -1.00000000 6.4290290e-18
vn 0.96916853 0.0000000e+0 0.24639878
vn 0.0000000e+0 0.0000000e+0 1.00000000
vn 0.0000000e+0 1.00000000 0.0000000e+0
vn 0.0000000e+0 1.00000000 0.0000000e+0
vn 0.96916853 0.0000000e+0 -0.24639878
vn 0.0000000e+0 0.0000000e+0 -1.00000000
vn 0.0000000e+0 1.00000000 0.0000000e+0
vn 0.0000000e+0 1.00000000 0.0000000e+0
vn 0.96916853 0.0000000e+0 0.24639878
vn 0.0000000e+0 0.0000000e+0 1.00000000
vn 0.0000000e+0 -1.00000000 6.4290290e-18
vn 0.96916853 0.0000000e+0 -0.24639878
vn 0.0000000e+0 0.0000000e+0 -1.00000000
vn 0.0000000e+0 -1.00000000 6.4290290e-18
vn 0.0000000e+0 0.0000000e+0 1.00000000
vn -0.96916853 0.0000000e+0 0.24639878
vn 0.0000000e+0 1.00000000 0.0000000e+0
vn 0.0000000e+0 1.00000000 0.0000000e+0
vn -0.96916853 0.0000000e+0 -0.24639878
vn 0.0000000e+0 0.0000000e+0 -1.00000000
vn 0.0000000e+0 1.00000000 0.0000000e+0
vn 0.0000000e+0 1.00000000 0.0000000e+0
vn 0.0000000e+0 0.0000000e+0 1.00000000
vn -0.96916853 0.0000000e+0 0.24639878
vn 0.0000000e+0 -1.00000000 6.4290290e-18
vn -0.96916853 0.0000000e+0 -0.24639878
vn 0.0000000e+0 0.0000000e+0 -1.00000000
vn 0.0000000e+0 -1.00000000 6.4290290e-18
vn 0.0000000e+0 1.00000000 0.0000000e+0
vn 0.0000000e+0 1.00000000 0.0000000e+0
vn 0.96916853 0.0000000e+0 0.24639878
vn 0.0000000e+0 0.0000000e+0 1.00000000
vn 0.0000000e+0 1.00000000 0.0000000e+0
vn 0.0000000e+0 1.00000000 0.0000000e+0
vn 0.96916853 0.0000000e+0 0.24639878
vn 1.00000000 0.0000000e+0 0.0000000e+0
vn 0.0000000e+0 1.00000000 0.0000000e+0
vn 0.0000000e+0 1.00000000 0.0000000e+0
vn 1.00000000 0.0000000e+0 0.0000000e+0
vn 0.96916853 0.0000000e+0 -0.24639878
vn 0.0000000e+0 1.00000000 0.0000000e+0
vn 0.0000000e+0 1.00000000 0.0000000e+0
vn 0.96916853 0.0000000e+0 -0.24639878
vn 0.0000000e+0 0.0000000e+0 -1.00000000
vn 0.0000000e+0 1.00000000 0.0000000e+0
vn 0.0000000e+0 1.00000000 0.0000000e+0
vn 0.0000000e+0 0.0000000e+0 -1.00000000
vn -0.96916853 0.0000000e+0 -0.24639878
vn 0.0000000e+0 1.00000000 0.0000000e+0
vn 0.0000000e+0 1.00000000 0.0000000e+0
vn -0.96916853 0.0000000e+0 -0.24639878
vn -1.00000000 0.0000000e+0 0.0000000e+0
vn 0.0000000e+0 1.00000000 0.0000000e+0
vn 0.0000000e+0 1.00000000 0.0000000e+0
vn -1.00000000 0.0000000e+0 0.0000000e+0
vn -0.96916853 0.0000000e+0 0.24639878
vn 0.0000000e+0 1.00000000 0.0000000e+0
vn 0.0000000e+0 1.00000000 0.0000000e+0
vn -0.96916853 0.0000000e+0 0.24639878
vn 0.0000000e+0 0.0000000e+0 1.00000000
vn 0.0000000e+0 1.00000000 0.0000000e+0
vn 0.96916853 0.0000000e+0 0.24639878
vn 0.0000000e+0 0.0000000e+0 1.00000000
vn 0.0000000e+0 1.00000000 0.0000000e+0
vn 0.96916853 0.0000000e+0 0.24639878
vn 1.00000000 0.0000000e+0 0.0000000e+0
vn 0.0000000e+0 1.00000000 0.0000000e+0
vn 1.00000000 0.0000000e+0 0.0000000e+0
vn 0.96916853 0.0000000e+0 -0.24639878
vn 0.0000000e+0 1.00000000 0.0000000e+0
vn 0.96916853 0.0000000e+0 -0.24639878
vn 0.0000000e+0 0.0000000e+0 -1.00000000
vn 0.0000000e+0 1.00000000 0.0000000e+0
vn 0.0000000e+0 0.0000000e+0 -1.00000000
vn -0.96916853 0.0000000e+0 -0.24639878
vn 0.0000000e+0 1.00000000 0.0000000e+0
vn -0.96916853 0.0000000e+0 -0.24639878
vn -1.00000000 0.0000000e+0 0.0000000e+0
vn 0.0000000e+0 1.00000000 0.0000000e+0
vn -1.00000000 0.0000000e+0 0.0000000e+0
vn -0.96916853 0.0000000e+0 0.24639878
vn 0.0000000e+0 1.00000000 0.0000000e+0
vn -0.96916853 0.0000000e+0 0.24639878
vn 0.0000000e+0 0.0000000e+0 1.00000000
g octotoad2_octotoad2_auv
usemtl octotoad2_auv
s 1
f 1/26/2 9/3/29 11/1/37 3/24/10
f 2/39/7 19/37/65 18/36/62 1/38/4
f 4/58/13 12/75/40 10/77/33 2/60/6
f 5/16/17 23/18/81 22/19/78 6/17/22
f 6/27/20 14/4/47 16/2/54 8/25/27
f 7/59/24 15/76/52 13/78/44 5/61/16
f 9/34/32 17/32/58 24/30/86 13/28/46
f 14/29/49 21/31/73 20/33/70 10/35/36
f 18/21/63 26/23/93 25/9/90 17/7/59
f 20/72/71 28/74/99 27/57/97 19/55/68
f 22/20/79 30/22/105 29/8/103 21/6/76
f 24/71/87 32/73/111 31/56/109 23/54/84
s 2
f 1/26/1 3/24/9 4/58/12 2/60/5
f 1/38/3 18/36/61 17/32/57 9/34/31
f 6/27/19 8/25/26 7/59/23 5/61/15
f 6/17/21 22/19/77 21/31/74 14/29/50
f 9/70/30 13/68/43 15/66/51 11/69/38
f 10/35/35 20/33/69 19/37/66 2/39/8
f 12/62/41 16/67/55 14/68/48 10/63/34
f 13/28/45 24/30/85 23/18/82 5/16/18
f 17/50/60 25/51/91 32/45/112 24/44/88
f 19/55/67 27/57/96 26/23/94 18/21/64
f 21/46/75 29/47/102 28/43/100 20/42/72
f 23/54/83 31/56/108 30/22/106 22/20/80
s 3
f 3/10/11 11/12/39 15/14/53 7/16/25 8/15/28 16/13/56 12/11/42 4/5/14
f 26/64/92 27/65/95 28/53/98 29/49/101 30/41/104 31/40/107 32/48/110 25/52/89
o Cube1
#40 vertices, 38 faces
v -0.37570000 8.5983510e-2 -0.97760000
v -0.37570000 8.5983510e-2 0.97760000
v -0.37570000 0.18218351 -0.97760000
v -0.37570000 0.18218351 0.97760000
v 0.37570000 8.5983510e-2 -0.97760000
v 0.37570000 8.5983510e-2 0.97760000
v 0.37570000 0.18218351 -0.97760000
v 0.37570000 0.18218351 0.97760000
v -0.30506840 8.5983510e-2 -1.15483028
v -0.30506840 0.18218351 -1.15483028
v 0.30506840 0.18218351 -1.15483028
v 0.30506840 8.5983510e-2 -1.15483028
v -0.30506840 0.18218351 1.15483028
v -0.30506840 8.5983510e-2 1.15483028
v 0.30506840 8.5983510e-2 1.15483028
v 0.30506840 0.18218351 1.15483028
v -0.30018731 8.5983510e-2 -1.25724979
v -0.30018731 0.18218351 -1.25724979
v 0.30018731 0.18218351 -1.25724979
v 0.30018731 8.5983510e-2 -1.25724979
v -0.30018731 0.18218351 1.25724979
v -0.30018731 8.5983510e-2 1.25724979
v 0.30018731 8.5983510e-2 1.25724979
v 0.30018731 0.18218351 1.25724979
v -0.28928900 0.18218351 -0.89118900
v -0.28928900 0.18218351 0.89118900
v 0.28928900 0.18218351 0.89118900
v 0.28928900 0.18218351 -0.89118900
v -0.28928900 0.25271938 -0.89118900
v -0.28928900 0.25271938 0.89118900
v 0.28928900 0.25271938 0.89118900
v 0.28928900 0.25271938 -0.89118900
v -0.22390969 0.25271938 -0.82580969
v -0.22390969 0.25271938 0.82580969
v 0.22390969 0.25271938 0.82580969
v 0.22390969 0.25271938 -0.82580969
v -0.22390969 0.17505867 -0.82580969
v -0.22390969 0.17505867 0.82580969
v 0.22390969 0.17505867 0.82580969
v 0.22390969 0.17505867 -0.82580969
vt 0.0000000e+0 0.0000000e+0
vt 0.0000000e+0 3.2031510e-2
vt 0.0000000e+0 6.4063019e-2
vt 0.0000000e+0 0.15717742
vt 0.0000000e+0 0.90131060
vt 0.0000000e+0 0.92479678
vt 0.0000000e+0 0.94828296
vt 0.0000000e+0 0.97414148
vt 0.0000000e+0 0.97414148
vt 0.0000000e+0 1.00000000
vt 5.5511151e-17 0.80819621
vt 2.3518054e-2 9.8165425e-2
vt 2.3518054e-2 0.86720820
vt 2.5143301e-2 6.4063019e-2
vt 2.5143301e-2 0.90131060
vt 3.4102406e-2 0.0000000e+0
vt 3.4102406e-2 3.2031510e-2
vt 3.4102406e-2 6.4063019e-2
vt 9.3114396e-2 0.0000000e+0
vt 9.3114396e-2 3.2031510e-2
vt 9.3114396e-2 6.4063019e-2
vt 0.22504876 6.4063019e-2
vt 0.22504876 0.90131060
vt 0.22667401 9.8165425e-2
vt 0.22667401 0.86720820
vt 0.25019206 0.15717742
vt 0.25019206 0.15717742
vt 0.25019206 0.80819621
vt 0.27371012 9.8165425e-2
vt 0.27371012 0.86720820
vt 0.27533536 6.4063019e-2
vt 0.27533536 0.90131060
vt 0.27896415 0.18594950
vt 0.27896415 0.77942412
vt 0.47161204 0.18594950
vt 0.47161204 0.77942412
vt 0.47524082 6.4063019e-2
vt 0.47524082 0.90131060
vt 0.47686607 9.8165425e-2
vt 0.47686607 0.86720820
vt 0.50038412 6.4063019e-2
vt 0.50038412 0.65753764
vt 0.50038412 0.72160066
vt 0.50038412 0.74508683
vt 0.50038412 0.74508683
vt 0.50038412 0.76857301
vt 0.50038412 0.15717742
vt 0.50038412 0.65753764
vt 0.50038412 0.68956915
vt 0.50038412 0.72160066
vt 0.50038412 0.76857301
vt 0.50038412 0.79443153
vt 0.50038412 0.79443153
vt 0.50038412 0.80819621
vt 0.50038412 0.82029005
vt 0.52215334 8.5832231e-2
vt 0.52215334 0.63576843
vt 0.54993619 0.94828296
vt 0.54993619 0.97414148
vt 0.54993619 0.97414148
vt 0.54993619 1.00000000
vt 0.59347462 0.90131060
vt 0.59347462 0.92479678
vt 0.59347462 0.94828296
vt 0.64949359 0.76857301
vt 0.64949359 0.79443153
vt 0.64949359 0.79443153
vt 0.64949359 0.82029005
vt 0.67126280 8.5832231e-2
vt 0.67126280 0.63576843
vt 0.69303201 0.72160066
vt 0.69303201 6.4063019e-2
vt 0.69303201 0.65753764
vt 0.69303201 0.74508683
vt 0.69303201 0.74508683
vt 0.69303201 0.76857301
vt 0.70028958 0.65753764
vt 0.70028958 0.68956915
vt 0.70028958 0.68956915
vt 0.70028958 0.72160066
vt 0.74413319 0.0000000e+0
vt 0.74413319 3.2031510e-2
vt 0.74413319 6.4063019e-2
vt 0.80314518 0.0000000e+0
vt 0.80314518 3.2031510e-2
vt 0.80314518 6.4063019e-2
vt 0.83724758 0.0000000e+0
vt 0.83724758 3.2031510e-2
vt 0.83724758 6.4063019e-2
vt 0.83724758 0.0000000e+0
vt 0.83724758 0.54993619
vt 0.98635705 0.0000000e+0
vt 0.98635705 0.54993619
vn 0.0000000e+0 -1.00000000 0.0000000e+0
vn -1.00000000 0.0000000e+0 0.0000000e+0
vn -0.92894679 0.0000000e+0 -0.37021325
vn 0.0000000e+0 -1.00000000 0.0000000e+0
vn 0.0000000e+0 -1.00000000 0.0000000e+0
vn -1.00000000 0.0000000e+0 0.0000000e+0
vn -0.92894679 0.0000000e+0 0.37021325
vn 0.0000000e+0 -1.00000000 0.0000000e+0
vn -1.00000000 0.0000000e+0 0.0000000e+0
vn -0.92894679 0.0000000e+0 -0.37021325
vn 0.0000000e+0 1.00000000 0.0000000e+0
vn 0.0000000e+0 1.00000000 0.0000000e+0
vn 0.0000000e+0 1.00000000 0.0000000e+0
vn -1.00000000 0.0000000e+0 0.0000000e+0
vn -0.92894679 0.0000000e+0 0.37021325
vn 0.0000000e+0 1.00000000 0.0000000e+0
vn 0.0000000e+0 1.00000000 0.0000000e+0
vn 0.0000000e+0 1.00000000 0.0000000e+0
vn 0.0000000e+0 -1.00000000 0.0000000e+0
vn 1.00000000 0.0000000e+0 0.0000000e+0
vn 0.92894679 0.0000000e+0 -0.37021325
vn 0.0000000e+0 -1.00000000 0.0000000e+0
vn 0.0000000e+0 -1.00000000 0.0000000e+0
vn 1.00000000 0.0000000e+0 0.0000000e+0
vn 0.0000000e+0 -1.00000000 0.0000000e+0
vn 0.92894679 0.0000000e+0 0.37021325
vn 1.00000000 0.0000000e+0 0.0000000e+0
vn 0.0000000e+0 1.00000000 0.0000000e+0
vn 0.92894679 0.0000000e+0 -0.37021325
vn 0.0000000e+0 1.00000000 0.0000000e+0
vn 0.0000000e+0 1.00000000 0.0000000e+0
vn 1.00000000 0.0000000e+0 0.0000000e+0
vn 0.92894679 0.0000000e+0 0.37021325
vn 0.0000000e+0 1.00000000 0.0000000e+0
vn 0.0000000e+0 1.00000000 0.0000000e+0
vn 0.0000000e+0 1.00000000 0.0000000e+0
vn -0.92894679 0.0000000e+0 -0.37021325
vn 0.0000000e+0 -1.00000000 0.0000000e+0
vn -0.99886630 0.0000000e+0 -4.7603828e-2
vn 0.0000000e+0 -1.00000000 0.0000000e+0
vn -0.92894679 0.0000000e+0 -0.37021325
vn 0.0000000e+0 1.00000000 0.0000000e+0
vn -0.99886630 0.0000000e+0 -4.7603828e-2
vn 0.0000000e+0 1.00000000 0.0000000e+0
vn 0.0000000e+0 1.00000000 0.0000000e+0
vn 0.92894679 0.0000000e+0 -0.37021325
vn 0.0000000e+0 1.00000000 0.0000000e+0
vn 0.99886630 0.0000000e+0 -4.7603828e-2
vn 0.92894679 0.0000000e+0 -0.37021325
vn 0.0000000e+0 -1.00000000 0.0000000e+0
vn 0.99886630 0.0000000e+0 -4.7603828e-2
vn 0.0000000e+0 -1.00000000 0.0000000e+0
vn -0.92894679 0.0000000e+0 0.37021325
vn 0.0000000e+0 1.00000000 0.0000000e+0
vn -0.99886630 0.0000000e+0 4.7603828e-2
vn 0.0000000e+0 1.00000000 0.0000000e+0
vn -0.92894679 0.0000000e+0 0.37021325
vn 0.0000000e+0 -1.00000000 0.0000000e+0
vn -0.99886630 0.0000000e+0 4.7603828e-2
vn 0.0000000e+0 -1.00000000 0.0000000e+0
vn 0.0000000e+0 -1.00000000 0.0000000e+0
vn 0.92894679 0.0000000e+0 0.37021325
vn 0.0000000e+0 -1.00000000 0.0000000e+0
vn 0.99886630 0.0000000e+0 4.7603828e-2
vn 0.92894679 0.0000000e+0 0.37021325
vn 0.0000000e+0 1.00000000 0.0000000e+0
vn 0.99886630 0.0000000e+0 4.7603828e-2
vn 0.0000000e+0 1.00000000 0.0000000e+0
vn 0.0000000e+0 0.0000000e+0 -1.00000000
vn -0.99886630 0.0000000e+0 -4.7603828e-2
vn 0.0000000e+0 -1.00000000 0.0000000e+0
vn 0.0000000e+0 0.0000000e+0 -1.00000000
vn -0.99886630 0.0000000e+0 -4.7603828e-2
vn 0.0000000e+0 1.00000000 0.0000000e+0
vn 0.0000000e+0 0.0000000e+0 -1.00000000
vn 0.0000000e+0 1.00000000 0.0000000e+0
vn 0.99886630 0.0000000e+0 -4.7603828e-2
vn 0.0000000e+0 0.0000000e+0 -1.00000000
vn 0.99886630 0.0000000e+0 -4.7603828e-2
vn 0.0000000e+0 -1.00000000 0.0000000e+0
vn 0.0000000e+0 0.0000000e+0 1.00000000
vn -0.99886630 0.0000000e+0 4.7603828e-2
vn 0.0000000e+0 1.00000000 0.0000000e+0
vn 0.0000000e+0 0.0000000e+0 1.00000000
vn -0.99886630 0.0000000e+0 4.7603828e-2
vn 0.0000000e+0 -1.00000000 0.0000000e+0
vn 0.0000000e+0 0.0000000e+0 1.00000000
vn 0.0000000e+0 -1.00000000 0.0000000e+0
vn 0.99886630 0.0000000e+0 4.7603828e-2
vn 0.0000000e+0 0.0000000e+0 1.00000000
vn 0.99886630 0.0000000e+0 4.7603828e-2
vn 0.0000000e+0 1.00000000 0.0000000e+0
vn 0.0000000e+0 1.00000000 0.0000000e+0
vn 0.0000000e+0 1.00000000 0.0000000e+0
vn -1.00000000 0.0000000e+0 0.0000000e+0
vn 0.0000000e+0 0.0000000e+0 -1.00000000
vn 0.0000000e+0 1.00000000 0.0000000e+0
vn 0.0000000e+0 1.00000000 0.0000000e+0
vn -1.00000000 0.0000000e+0 0.0000000e+0
vn 0.0000000e+0 0.0000000e+0 1.00000000
vn 0.0000000e+0 1.00000000 0.0000000e+0
vn 0.0000000e+0 1.00000000 0.0000000e+0
vn 0.0000000e+0 0.0000000e+0 1.00000000
vn 1.00000000 0.0000000e+0 0.0000000e+0
vn 0.0000000e+0 1.00000000 0.0000000e+0
vn 0.0000000e+0 1.00000000 0.0000000e+0
vn 1.00000000 0.0000000e+0 0.0000000e+0
vn 0.0000000e+0 0.0000000e+0 -1.00000000
vn -1.00000000 0.0000000e+0 0.0000000e+0
vn 0.0000000e+0 0.0000000e+0 -1.00000000
vn 0.0000000e+0 1.00000000 0.0000000e+0
vn 0.0000000e+0 1.00000000 0.0000000e+0
vn -1.00000000 0.0000000e+0 0.0000000e+0
vn 0.0000000e+0 0.0000000e+0 1.00000000
vn 0.0000000e+0 1.00000000 0.0000000e+0
vn 0.0000000e+0 1.00000000 0.0000000e+0
vn 0.0000000e+0 0.0000000e+0 1.00000000
vn 1.00000000 0.0000000e+0 0.0000000e+0
vn 0.0000000e+0 1.00000000 0.0000000e+0
vn 0.0000000e+0 1.00000000 0.0000000e+0
vn 1.00000000 0.0000000e+0 0.0000000e+0
vn 0.0000000e+0 0.0000000e+0 -1.00000000
vn 0.0000000e+0 1.00000000 0.0000000e+0
vn 0.0000000e+0 1.00000000 0.0000000e+0
vn 0.0000000e+0 1.00000000 0.0000000e+0
vn 0.0000000e+0 1.00000000 0.0000000e+0
vn 1.00000000 0.0000000e+0 0.0000000e+0
vn 0.0000000e+0 0.0000000e+0 1.00000000
vn 0.0000000e+0 1.00000000 0.0000000e+0
vn 0.0000000e+0 1.00000000 0.0000000e+0
vn 1.00000000 0.0000000e+0 0.0000000e+0
vn 0.0000000e+0 0.0000000e+0 -1.00000000
vn 0.0000000e+0 1.00000000 0.0000000e+0
vn 0.0000000e+0 1.00000000 0.0000000e+0
vn 0.0000000e+0 0.0000000e+0 -1.00000000
vn -1.00000000 0.0000000e+0 0.0000000e+0
vn 0.0000000e+0 1.00000000 0.0000000e+0
vn 0.0000000e+0 1.00000000 0.0000000e+0
vn -1.00000000 0.0000000e+0 0.0000000e+0
vn 0.0000000e+0 0.0000000e+0 1.00000000
vn 0.0000000e+0 1.00000000 0.0000000e+0
vn 1.00000000 0.0000000e+0 0.0000000e+0
vn 0.0000000e+0 0.0000000e+0 1.00000000
vn 0.0000000e+0 1.00000000 0.0000000e+0
vn 1.00000000 0.0000000e+0 0.0000000e+0
vn 0.0000000e+0 0.0000000e+0 -1.00000000
vn 0.0000000e+0 1.00000000 0.0000000e+0
vn 0.0000000e+0 0.0000000e+0 -1.00000000
vn -1.00000000 0.0000000e+0 0.0000000e+0
vn 0.0000000e+0 1.00000000 0.0000000e+0
vn -1.00000000 0.0000000e+0 0.0000000e+0
vn 0.0000000e+0 0.0000000e+0 1.00000000
g Cube1_Cube1_auv
usemtl Cube1_auv
s 1
f 34/160/118 36/161/126 35/99/121 33/98/114
f 36/105/128 45/107/166 48/117/178 40/125/146
f 37/159/132 39/160/139 40/98/144 38/97/136
f 38/82/137 47/90/173 46/102/170 34/104/120
f 39/132/140 43/118/157 42/108/154 35/106/123
f 41/103/152 49/101/183 52/93/192 44/91/164
f 54/127/196 55/157/199 56/158/202 53/128/193
f 57/149/208 61/152/222 64/122/234 60/121/220
f 59/153/215 63/154/229 62/124/226 58/123/212
f 62/119/227 66/134/241 65/135/237 61/120/223
f 64/151/235 68/148/249 67/147/246 63/150/232
f 65/133/240 69/130/255 72/144/264 68/146/252
f 67/131/247 71/129/260 70/143/258 66/145/244
s 2
f 33/106/113 37/89/131 38/82/135 34/104/117
f 35/99/122 42/96/153 41/95/149 33/98/115
f 36/105/129 58/111/209 57/112/205 35/106/124
f 37/159/133 44/162/161 43/163/158 39/160/141
f 40/98/145 48/95/177 47/94/174 38/97/138
f 46/163/171 54/166/197 53/167/194 45/164/167
f 50/156/184 51/127/187 52/126/190 49/155/181
f 60/140/219 64/141/233 63/84/230 59/83/216
f 61/120/224 65/135/238 68/148/250 64/151/236
f 63/150/231 67/147/245 66/134/242 62/119/228
f 70/168/256 71/170/259 72/171/262 69/169/253
s 3
f 33/106/116 41/103/150 44/91/162 37/89/134
f 34/160/119 46/163/169 45/164/165 36/161/127
f 35/106/125 57/112/206 60/114/218 39/132/143
f 40/125/147 59/113/213 58/111/210 36/105/130
f 42/96/155 50/81/185 49/80/182 41/95/151
f 44/162/163 52/165/191 51/166/189 43/163/160
f 45/107/168 53/109/195 56/115/204 48/117/180
f 47/90/175 55/92/200 54/100/198 46/102/172
f 58/141/211 62/142/225 61/85/221 57/84/207
f 66/88/243 70/86/257 69/137/254 65/139/239
f 68/87/251 72/85/263 71/136/261 67/138/248
s 4
f 39/132/142 60/114/217 59/113/214 40/125/148
f 43/118/159 51/116/188 50/110/186 42/108/156
f 48/95/179 56/80/203 55/79/201 47/94/176
